<?xml version="1.0" standalone="no"?>
<!DOCTYPE svg PUBLIC "-//W3C//DTD SVG 1.1//EN" "http://www.w3.org/Graphics/SVG/1.1/DTD/svg11.dtd" >
<svg xmlns="http://www.w3.org/2000/svg" xmlns:xlink="http://www.w3.org/1999/xlink" version="1.1">
<metadata></metadata>
<defs>
<font id="cocogoose_prothin" horiz-adv-x="458" >
<font-face units-per-em="2048" ascent="1638" descent="-410" />
<missing-glyph horiz-adv-x="641" />
<glyph unicode="&#xfb01;" horiz-adv-x="1164" d="M42 1149v1q0 13 8 18.5t21 5.5h235v163q0 131 48.5 223t136 139t203.5 47q21 0 28 -11t7 -20v-2q0 -7 -7.5 -17t-31.5 -10q-106 0 -179 -44t-109.5 -123t-36.5 -182v-163h605q29 -2 28 -24v-1116q0 -34 -28 -34h-1q-15 0 -22.5 9t-7.5 25v1087h-574v-1087q0 -34 -29 -34 h-1q-29 0 -29 34v1087h-235q-29 0 -29 28zM919 1610v49q1 21 22 21h52q20 0 20 -23v-47q0 -23 -20 -24h-51q-13 0 -18 5.5t-5 18.5z" />
<glyph unicode="&#xfb03;" horiz-adv-x="1971" d="M39 1149v1q0 13 8 18.5t22 5.5h238v163q0 131 48.5 223t136 139t203.5 47q21 0 28 -11t7 -20v-2q0 -7 -7.5 -17t-31.5 -10q-106 0 -179 -44t-109.5 -123t-36.5 -182v-163h704v163q0 131 48.5 223t136 139t203.5 47q21 0 27.5 -11t6.5 -20v-2q0 -7 -7.5 -17t-30.5 -10 q-106 0 -179 -44t-109.5 -123t-36.5 -182v-163h628q29 -2 29 -24v-1116q0 -34 -29 -34h-1q-15 0 -22.5 9t-7.5 25v1087h-597v-1087q0 -34 -29 -34h-1q-29 0 -29 34v1087h-704v-1087q0 -34 -29 -34h-1q-29 0 -29 34v1087h-238q-30 0 -30 28zM1707 1610v49q0 21 21 21h52 q20 0 21 -23v-47q0 -23 -21 -24h-51q-13 0 -17.5 5.5t-4.5 18.5z" />
<glyph horiz-adv-x="0" />
<glyph horiz-adv-x="0" />
<glyph unicode="&#xd;" horiz-adv-x="641" />
<glyph unicode=" "  horiz-adv-x="641" />
<glyph unicode="&#x09;" horiz-adv-x="641" />
<glyph unicode="&#xa0;" horiz-adv-x="641" />
<glyph unicode="!" d="M181 13v50q0 15 14 15h52q9 0 11.5 -3.5t2.5 -11.5v-50q0 -14 -14 -14h-52q-14 0 -14 14zM192 396v1242q0 14 8 24.5t21 10.5h1q28 0 28 -35v-1240q0 -35 -26 -35h-3q-14 0 -21.5 9t-7.5 24z" />
<glyph unicode="&#x22;" horiz-adv-x="620" d="M167 1184v303q0 33 29 33t29 -33v-303q0 -16 -8 -24t-21 -8q-29 0 -29 32zM363 1184v303q-1 33 28 33t29 -33v-303q0 -16 -8 -24t-21 -8q-29 0 -28 32z" />
<glyph unicode="#" horiz-adv-x="1059" d="M38 513v1q0 29 35 29h165l68 463h-159q-34 0 -34 29v1q0 29 34 29h168l63 425q5 32 27 32h1q29 0 29 -32v-7l-62 -418h377l63 425q5 32 28 32h1q29 0 28 -32v-7l-61 -418h180q13 0 22 -8t9 -22v-1q0 -11 -9 -19.5t-22 -8.5h-189l-68 -463h182q13 0 22 -8t9 -22v-1 q0 -11 -9 -19.5t-22 -8.5h-191l-66 -452q-4 -32 -28 -32h-2q-17 0 -23 7.5t-6 21.5l1 10l66 445h-377l-66 -452q-4 -32 -28 -32h-2q-17 0 -23 7.5t-6 21.5l1 10l65 445h-156q-34 0 -35 29zM297 543h376l68 463h-376z" />
<glyph unicode="$" horiz-adv-x="1317" d="M78 241q0 12 8 20l3 2q7 4 16 5q15 0 32 -21q83 -103 199.5 -156t286.5 -53q144 0 257.5 38.5t181.5 123.5t68 217q0 114 -78.5 182t-176.5 97.5t-250 59.5q-176 32 -288.5 81t-169 123.5t-56.5 180.5q0 178 127 280.5t354 115.5v130q0 29 29 29h1q28 0 28 -29v-128 q146 0 253 -39.5t205 -134.5q10 -10 10 -23q0 -11 -7 -19l-2 -2q-9 -5 -18 -6q-9 0 -17 5.5t-20 16.5q-64 54 -116.5 84t-120 44t-167.5 14q-125 0 -233.5 -33t-177.5 -108t-69 -197q0 -140 127.5 -215t341.5 -115q171 -34 278.5 -69t189 -113.5t81.5 -211.5 q0 -141 -69.5 -237.5t-191.5 -146t-277 -53.5v-142q0 -29 -29 -29h-1q-28 0 -28 29v143q-164 4 -286.5 57.5t-213.5 173.5q-14 14 -14 29z" />
<glyph unicode="%" horiz-adv-x="1978" d="M96 1169q0 117 57.5 217t155 158.5t214.5 58.5t218 -58.5t160 -158.5t59 -217q0 -116 -59 -215t-160 -157t-218 -58q-116 0 -214 58t-155.5 157t-57.5 215zM155 1169q0 -101 49.5 -186.5t133.5 -135.5t185 -50q102 0 189 50t137.5 136t50.5 186t-51 186.5t-137.5 137 t-188.5 50.5q-100 0 -184.5 -50.5t-134 -136.5t-49.5 -187zM521 29q0 11 5 18l790 1457q11 14 24 14h1q15 0 22 -8t7 -19q0 -7 -6 -16l-793 -1464q-10 -11 -23 -11h-1q-13 2 -19.5 10t-6.5 19zM1061 379q0 117 58 216.5t155.5 158.5t213.5 59q117 0 218 -59t160 -158.5 t59 -216.5q0 -116 -59 -215t-160 -157t-218 -58q-116 0 -213.5 58t-155.5 156.5t-58 215.5zM1120 379q0 -102 49.5 -187t134 -135.5t184.5 -50.5q102 0 189 50.5t138 136t51 186.5q0 100 -51.5 186.5t-138 137t-188.5 50.5q-100 0 -184.5 -50.5t-134 -136.5t-49.5 -187z" />
<glyph unicode="&#x26;" horiz-adv-x="1722" d="M133 453q0 169 78.5 286.5t237.5 147.5q-98 47 -143 126t-45 181q0 107 51.5 182.5t137 113t190.5 37.5q113 0 201 -44t137.5 -126.5t49.5 -193.5q0 -12 -7.5 -19.5t-16.5 -7.5h-3q-10 0 -17 7.5t-7 19.5q0 87 -42 157.5t-118.5 110.5t-176.5 40q-91 0 -164 -33 t-114.5 -96t-41.5 -148q0 -122 79.5 -202.5t269.5 -104.5q13 -2 20.5 -10t4.5 -16l-2 -13q-3 -18 -26 -18q-27 0 -64 7q-41 6 -61 7q-96 0 -175 -43t-126 -131t-47 -217q0 -110 65.5 -205t170.5 -152.5t218 -57.5q119 0 222 56.5t163.5 152t60.5 206.5v21l-96 28 q-47 15 -72 21t-58 6q-41 0 -76 -11.5t-59 -34.5q-9 -9 -24 -8q-15 0 -23 11l-2 4q-4 3 -4 9q0 22 31 42.5t76 33t84 12.5q52 0 102 -16l93 -27q144 -39 192 -55q74 -25 136 -25q118 0 185 71.5t95 157.5q3 10 11.5 16.5t16.5 6.5q6 0 8 -1l3 -1q7 -2 12 -10.5t5 -17.5 q0 -7 -1 -10q-100 -268 -335 -267q-51 0 -92.5 9t-150.5 41v-6q0 -129 -67.5 -237.5t-183 -172.5t-252.5 -64q-129 0 -247.5 64.5t-192.5 173.5t-74 236z" />
<glyph unicode="'" horiz-adv-x="361" d="M149 1184v303q0 33 29 33t29 -33v-303q0 -16 -8 -24t-21 -8q-29 0 -29 32z" />
<glyph unicode="(" horiz-adv-x="580" d="M167 766q0 299 86 553t209 451q10 14 23 13q11 0 17 -6l1 -1q10 -11 10 -21q0 -6 -4 -14q-116 -188 -200 -438.5t-84 -535.5t84 -536.5t200 -439.5q4 -5 4 -15q0 -11 -10 -20l-1 -1q-7 -7 -17 -8q-14 0 -23 15q-122 193 -208.5 449.5t-86.5 554.5z" />
<glyph unicode=")" horiz-adv-x="589" d="M42 -224q0 10 4 15q116 188 200 439.5t84 536.5t-84 535.5t-200 438.5q-4 7 -4 14q0 11 9 21l1 1q6 6 17 6q14 0 24 -13q123 -196 208.5 -450.5t85.5 -553.5q0 -298 -86.5 -554.5t-207.5 -449.5q-10 -15 -24 -15q-10 0 -17 8l-1 1q-10 10 -9 20z" />
<glyph unicode="*" horiz-adv-x="983" d="M121 662q0 29 34 29h278l-128 223q-6 10 -6 20q0 15 15 24h1q7 4 15 4q15 0 26 -19l120 -206l122 210q7 17 26 17q9 0 16 -4v-1q13 -6 13 -24q0 -10 -4 -17l-132 -226l272 -1q14 0 22.5 -7.5t9.5 -22.5h-1q0 -12 -8.5 -19.5t-22.5 -7.5l-254 -1l138 -246q5 -9 5 -17 q0 -16 -15 -24h-1q-4 -3 -12 -4q-19 0 -27 16l-147 261l-151 -263q-11 -19 -26 -19q-12 0 -21.5 9t-9.5 19q0 11 6 21l141 245h-260q-34 2 -34 31z" />
<glyph unicode="+" horiz-adv-x="921" d="M74 656v1q0 29 34 29h297v299q0 13 8 21.5t22 8.5h1q11 0 19.5 -9t8.5 -21v-299h301q13 0 22 -8t9 -22v-1q0 -11 -9 -19.5t-22 -8.5h-301v-300q0 -34 -29 -34h-1q-29 0 -29 34v300h-297q-34 0 -34 29z" />
<glyph unicode="," horiz-adv-x="467" d="M149 17v73q0 9 6 16t19 7h78q21 0 21 -23v-85q0 -33 -10 -62.5t-25 -48t-26 -18.5q-4 0 -8 5l-18 14q-3 3 -4 8q0 7 6.5 17t8.5 13q6 10 12 20.5t6 18.5q0 12 -2.5 15t-11.5 3h-27q-15 0 -20 6.5t-5 20.5z" />
<glyph unicode="-" horiz-adv-x="1048" d="M162 560v1q0 29 33 29h663q13 0 20.5 -7.5t7.5 -22.5v-1q0 -11 -8.5 -19.5t-19.5 -8.5h-663q-33 0 -33 29z" />
<glyph unicode="." horiz-adv-x="442" d="M149 22v76q0 11 6 18t18 7h77q14 0 18.5 -7t4.5 -20v-71q0 -25 -19 -25h-85q-19 0 -20 22z" />
<glyph unicode="/" horiz-adv-x="768" d="M64 27q0 6 3 14l577 1460q7 20 23 20h3q11 0 21 -8t10 -21q0 -6 -3 -13l-576 -1460q-8 -19 -24 -19h-2q-12 0 -22 6.5t-10 20.5z" />
<glyph unicode="0" horiz-adv-x="1800" d="M116 758q0 209 103 386.5t279.5 281.5t385.5 104t386 -104t281 -281.5t104 -386.5t-104 -385.5t-281 -279.5t-386 -103t-385.5 103t-279.5 279.5t-103 385.5zM177 758q0 -191 95.5 -353t258 -257.5t353.5 -95.5q192 0 355.5 95.5t259.5 257.5t96 353q0 192 -96 355.5 t-259.5 259.5t-355.5 96q-191 0 -353.5 -96t-258 -260t-95.5 -355z" />
<glyph unicode="1" horiz-adv-x="481" d="M0 1402q0 11 7.5 16.5t18.5 9.5l181 79q2 1 11.5 5.5t19.5 4.5h4q11 0 18.5 -6.5t7.5 -20.5v-1457q0 -33 -30 -33h-1q-13 0 -20.5 9t-7.5 24v1409l-161 -68q-7 -4 -19 -4q-19 0 -26 19l-1 3z" />
<glyph unicode="2" horiz-adv-x="1235" d="M123 30v1q0 17 12 28l766 660q76 73 112 131.5t44 105t8 112.5q0 107 -57 199t-157 147t-224 55q-140 0 -234 -60.5t-166 -189.5q-7 -14 -13.5 -17t-12.5 -3h-2q-12 0 -21 9t-9 21q0 5 3 12q66 140 183.5 212.5t266.5 72.5q141 0 255.5 -59.5t179.5 -164.5t65 -236 q0 -69 -10 -123t-47.5 -119.5t-114.5 -138.5l-725 -626h931q14 0 24 -6.5t10 -18.5v-3q0 -16 -9 -23.5t-25 -7.5h-1003q-15 0 -22.5 8t-7.5 22z" />
<glyph unicode="3" horiz-adv-x="1130" d="M96 330q0 13 7 20.5t22 7.5h2q6 0 13.5 -4.5t10.5 -15.5q54 -187 183 -245.5t238 -58.5q107 0 208 50.5t165 143t64 208.5q0 121 -48 215.5t-146.5 148.5t-243.5 54q-35 0 -36 26v2q0 11 9.5 19t24.5 8q157 0 242 58t85 189q0 92 -45 162t-118.5 107.5t-157.5 37.5 q-125 0 -204.5 -58.5t-115.5 -161.5q-7 -26 -27 -26h-6q-23 5 -23 26q0 2 3 10q86 266 375 266q98 0 186 -45t142.5 -127t54.5 -189q0 -106 -54 -179.5t-148 -97.5q156 -42 231.5 -159.5t75.5 -283.5q0 -135 -66 -240t-179 -164t-250 -59q-67 0 -159 26.5t-181.5 101.5 t-130.5 211q-3 9 -3 16z" />
<glyph unicode="4" horiz-adv-x="1177" d="M62 318q0 16 9 30l783 1146q2 3 7.5 11t11.5 12t16 4h5q12 0 16.5 -8t4.5 -19v-1142h128q33 0 33 -27v-2q0 -31 -33 -31h-128v-257q0 -16 -8 -25.5t-21 -9.5h-2q-15 0 -20.5 9t-5.5 26v257h-767q-14 0 -21.5 7.5t-7.5 18.5zM145 352h713v1040z" />
<glyph unicode="5" horiz-adv-x="1202" d="M100 319q0 15 13 24l3 3q4 4 14 4q19 0 32 -27q77 -163 192.5 -224.5t243.5 -61.5q143 0 246.5 71t157 177t53.5 211q0 110 -59 219.5t-163 179.5t-231 70q-187 0 -324 -114q-22 -18 -36 -36t-28 -42q-12 -19 -19 -27t-19 -8h-3q-26 0 -26 32l49 727q1 27 30 26h744 q33 0 33 -28v-2q0 -28 -33 -27h-717l-45 -601q68 78 168.5 116.5t221.5 38.5q145 0 262.5 -75t183.5 -195.5t66 -253.5q0 -142 -69 -260.5t-188.5 -187.5t-265.5 -69q-163 0 -288.5 87t-191.5 231q-6 6 -7 22z" />
<glyph unicode="6" horiz-adv-x="1226" d="M96 498q0 161 84 284l508 731q7 9 18 9h2q11 0 19.5 -7t8.5 -18q0 -9 -6 -19l-362 -518q115 61 247 61q142 0 262 -70.5t190.5 -190.5t70.5 -262q0 -141 -70.5 -260.5t-190.5 -189.5t-262 -70q-141 0 -260 70t-189 189.5t-70 260.5zM151 498q0 -126 63.5 -232.5 t171 -169.5t233.5 -63t233 63t170 169.5t63 232.5q0 127 -63 234t-170 170t-233 63t-233.5 -63t-171 -170t-63.5 -234z" />
<glyph unicode="7" horiz-adv-x="1126" d="M80 1490q0 28 33 28h949q15 0 23.5 -8.5t8.5 -22.5q0 -15 -7 -26l-867 -1445q-4 -7 -11.5 -11.5t-14.5 -4.5h-2q-13 0 -21.5 9t-8.5 22q0 10 5 18l853 1410h-907q-33 0 -33 31z" />
<glyph unicode="8" horiz-adv-x="1128" d="M105 434q0 97 38 184t107.5 150.5t159.5 93.5q-91 42 -147.5 128t-56.5 191q0 95 47.5 175t128 127.5t175.5 47.5q94 0 174.5 -47.5t128 -128t47.5 -174.5q0 -105 -56 -190t-148 -129q89 -30 158.5 -93.5t108.5 -150.5t39 -184q0 -123 -61 -227t-165 -164.5t-226 -60.5 q-123 0 -227 60.5t-164.5 164.5t-60.5 227zM160 434q0 -108 53.5 -199t144.5 -144.5t199 -53.5q107 0 198 53.5t145 144.5t54 199t-54 198.5t-145.5 144t-197.5 53.5q-108 0 -199 -53.5t-144.5 -144t-53.5 -198.5zM262 1181q0 -80 40 -147.5t108 -107t147 -39.5t146.5 39.5 t107.5 107t40 147.5q0 79 -40 146.5t-107.5 107.5t-146.5 40t-147 -40t-108 -107.5t-40 -146.5z" />
<glyph unicode="9" horiz-adv-x="1134" d="M41 1021q0 141 70 260.5t190 189.5t262 70q141 0 260.5 -70t189.5 -189.5t70 -260.5q0 -161 -85 -284l-507 -731q-7 -9 -18 -9h-3q-11 0 -19 7t-8 18q0 9 6 19l362 518q-115 -61 -248 -61q-142 0 -262 70.5t-190 190.5t-70 262zM94 1021q0 -127 63 -234.5t170 -170 t233 -62.5t233 62.5t170.5 170t63.5 234.5q0 126 -63.5 232.5t-170.5 169.5t-233 63t-233 -63t-170 -169.5t-63 -232.5z" />
<glyph unicode=":" horiz-adv-x="442" d="M149 22v76q0 11 6 18t18 7h77q14 0 18.5 -7t4.5 -20v-71q0 -25 -19 -25h-85q-19 0 -20 22zM149 1207v76q0 11 6 18t18 7h77q14 0 18.5 -7t4.5 -20v-71q0 -25 -19 -25h-85q-19 0 -20 22z" />
<glyph unicode=";" horiz-adv-x="446" d="M149 17v73q0 9 6 16t19 7h78q21 0 21 -23v-85q0 -33 -10 -62.5t-25 -48t-26 -18.5q-4 0 -8 5l-18 14q-3 3 -4 8q0 7 6.5 17t8.5 13q6 10 12 20.5t6 18.5q0 12 -2.5 15t-11.5 3h-27q-15 0 -20 6.5t-5 20.5zM149 1207v76q0 11 6 18t18 7h77q14 0 18.5 -7t4.5 -20v-71 q0 -25 -19 -25h-85q-19 0 -20 22z" />
<glyph unicode="&#x3c;" horiz-adv-x="817" d="M109 573q0 6 7 13l535 528q12 12 26 11q10 0 15 -5l2 -2q10 -10 10 -21q0 -13 -11 -24l-506 -500l506 -500q11 -11 11 -24q0 -12 -10 -21l-2 -2q-5 -5 -15 -6q-15 0 -26 12l-535 528q-7 7 -7 13z" />
<glyph unicode="=" horiz-adv-x="1030" d="M149 414v1q0 30 30 30h659q15 0 23.5 -8t8.5 -21v-2q0 -13 -8.5 -21t-23.5 -8h-659q-15 0 -22.5 8t-7.5 21zM149 689v1q0 30 30 30h659q15 0 23.5 -8t8.5 -21v-2q0 -13 -8.5 -21t-23.5 -8h-659q-15 0 -22.5 8t-7.5 21z" />
<glyph unicode="&#x3e;" horiz-adv-x="819" d="M149 49q0 13 11 24l507 500l-507 500q-11 11 -11 24q0 12 10 21l2 2q5 5 15 5q15 0 27 -11l534 -528q7 -7 8 -13q-1 -6 -8 -13l-534 -528q-12 -12 -27 -12q-10 0 -15 6l-2 2q-10 10 -10 21z" />
<glyph unicode="?" horiz-adv-x="1163" d="M90 1149q0 133 66 240.5t179.5 168t249.5 60.5q141 0 252 -59.5t172.5 -156t61.5 -201.5q0 -132 -64.5 -224t-196.5 -174q-69 -42 -115 -78t-77.5 -85.5t-31.5 -112.5v-189q0 -14 -10 -22t-19 -8h-3q-9 0 -17.5 8t-8.5 22v209q0 95 75 169t152 118q80 50 135 99.5 t89 116.5t34 153q0 100 -62 182t-161.5 129t-202.5 47q-119 0 -220 -52.5t-160.5 -146t-59.5 -211.5q0 -11 -7.5 -20t-21.5 -9h-2q-10 0 -18 7.5t-8 19.5zM514 22v58q0 18 16 18h61q10 0 13 -3.5t3 -14.5v-58q0 -16 -16 -16h-61q-16 0 -16 16z" />
<glyph unicode="@" horiz-adv-x="1972" d="M115 484q0 258 122 475.5t334 344t468 126.5t441 -131t280 -347t95 -466q0 -159 -60.5 -297t-240.5 -138q-55 0 -107 24.5t-83.5 68t-31.5 94.5v45q-50 -111 -148 -175t-225 -64q-121 0 -221 57t-158.5 157.5t-58.5 226.5t58.5 235t159 173.5t220.5 64.5q125 0 223.5 -72 t149.5 -192v240q0 12 8 19.5t19 7.5h1q12 0 20.5 -7.5t8.5 -19.5v-659q0 -49 23.5 -87t64 -58.5t89.5 -20.5q214 0 225 382q6 214 -82.5 418.5t-261.5 334t-408 129.5q-241 0 -439.5 -119t-312.5 -323t-114 -447q0 -241 119 -440.5t322.5 -315t445.5 -115.5q131 0 237.5 34 t199.5 100q9 6 20 7q14 0 21.5 -8t7.5 -19q0 -14 -14 -25q-87 -65 -212 -105.5t-260 -40.5q-257 0 -474 123.5t-344 336t-127 468.5zM576 485q0 -111 50.5 -199t138 -137t193.5 -49t187 49t126 136.5t45 199.5q0 114 -45 208.5t-127 150t-186 55.5q-105 0 -192.5 -55.5 t-138.5 -151t-51 -207.5z" />
<glyph unicode="A" horiz-adv-x="1468" d="M76 27q0 9 3 16l612 1456q9 20 26 22h5q6 0 13.5 -5t13.5 -17l611 -1456q3 -7 3 -14q0 -12 -9.5 -20.5t-20.5 -8.5h-3q-15 0 -23 20l-173 413h-830l-173 -412q-9 -21 -22 -21h-3q-13 0 -21.5 7t-8.5 20zM329 492h780l-389 932z" />
<glyph unicode="B" horiz-adv-x="1369" d="M166 30v1463q0 29 29 29h612q107 0 196.5 -50.5t142.5 -138t53 -194.5q0 -112 -57.5 -199.5t-155.5 -138.5q80 -23 146 -85t104.5 -146.5t38.5 -172.5q0 -102 -51.5 -192.5t-139 -145.5t-189.5 -59h-700q-29 0 -29 30zM224 59h673q107 0 179 56.5t106.5 135t34.5 144.5 q0 105 -53.5 188t-131 129t-148.5 46h-660v-699zM224 817h583q91 0 168 42t122 115t45 164q0 90 -45 164.5t-122 117.5t-168 43h-583v-646z" />
<glyph unicode="C" horiz-adv-x="1495" d="M96 761q0 213 105.5 391t286.5 282t394 104q137 0 259 -46.5t225 -131.5q17 -16 17 -29q0 -3 -1.5 -6t-1.5 -4l-2 -5l-1 -1q-10 -10 -23 -9q-12 0 -24 8q-210 162 -448 162q-197 0 -364 -95t-264 -259t-97 -361t97.5 -361t264 -259.5t363.5 -95.5q238 0 447 164 q12 10 24 10q11 0 18 -8l2 -2q6 -6 6 -17q0 -17 -14 -28q-101 -86 -223.5 -133.5t-259.5 -47.5q-213 0 -393.5 104t-286.5 282.5t-106 391.5z" />
<glyph unicode="D" horiz-adv-x="1580" d="M167 30v1463q0 29 29 29h460q220 0 401 -103t285.5 -278t104.5 -382q0 -206 -104.5 -380t-285.5 -276.5t-401 -102.5h-463q-26 2 -26 30zM225 60h427q205 0 373.5 93t265.5 253.5t97 352.5t-97 354t-265.5 255.5t-373.5 93.5h-427v-1402z" />
<glyph unicode="E" horiz-adv-x="1293" d="M166 30v1463q0 29 29 29h990q34 0 34 -29v-1q0 -15 -9 -22.5t-25 -7.5h-961v-644h787q16 0 26 -7t10 -22v-1q0 -15 -10 -22t-26 -7h-787v-699h982q34 0 35 -29v-1q0 -15 -9.5 -22.5t-25.5 -7.5h-1011q-29 0 -29 30z" />
<glyph unicode="F" horiz-adv-x="1259" d="M167 30v1463q0 29 29 29h998q27 0 26 -29v-1q0 -30 -26 -30h-969v-698h785q28 0 28 -29v-1q0 -30 -28 -30h-785v-674q0 -30 -28 -30h-1q-29 0 -29 30z" />
<glyph unicode="G" horiz-adv-x="1520" d="M102 759q0 213 105.5 392t285.5 283t392 104q137 0 260 -46.5t226 -130.5q16 -15 16 -28q0 -11 -6 -16l-1 -1q-10 -10 -22 -9q-12 0 -24 8q-209 160 -449 160q-197 0 -363 -95t-262.5 -259t-96.5 -362q0 -196 96.5 -360.5t262.5 -260.5t363 -96q121 0 235 42t211 113v447 q0 16 7.5 25t22.5 9q29 0 29 -34v-452q0 -21 -14 -34q-98 -81 -227 -128t-264 -47q-212 0 -392 104t-285.5 282t-105.5 390z" />
<glyph unicode="H" horiz-adv-x="1562" d="M164 34v1454q0 34 29 34h1q28 0 28 -34v-702h1102v702q0 34 29 34h1q28 0 27 -34v-1454q0 -34 -27 -34h-1q-29 0 -29 34v695h-1102v-695q0 -34 -28 -34h-1q-29 0 -29 34z" />
<glyph unicode="I" d="M164 35v1453q0 15 7.5 24.5t21.5 9.5h1q28 0 28 -34v-1453q0 -35 -28 -35h-1q-15 0 -22 9.5t-7 25.5z" />
<glyph unicode="J" d="M-345 -293q0 10 9 18l2 2q5 5 14 5q13 0 25 -11q75 -79 210 -79q84 0 150 40.5t103 104.5t37 132v1569q0 16 7 25.5t22 9.5h2q13 0 19.5 -10.5t6.5 -24.5v-1573q0 -89 -45.5 -165t-124.5 -121.5t-174 -45.5q-74 0 -135.5 22.5t-105.5 65.5q-21 21 -22 36z" />
<glyph unicode="K" horiz-adv-x="1446" d="M164 34v1453q0 34 29 34h1q28 0 28 -34v-938l888 953q19 20 32 20h3q12 0 20 -9t8 -21t-7 -19l-549 -582l712 -846q6 -7 6 -16q0 -12 -9 -20.5t-20 -8.5h-1q-17 0 -32 19l-697 828l-354 -377v-436q0 -34 -28 -34h-1q-29 0 -29 34z" />
<glyph unicode="L" horiz-adv-x="1186" d="M167 30v1458q0 34 29 34h1q28 0 28 -34v-1428h878q36 0 36 -28v-1q0 -15 -10 -23t-26 -8h-907q-29 0 -29 30z" />
<glyph unicode="M" horiz-adv-x="1812" d="M115 29v6l124 1462q1 10 9.5 17.5t21.5 8.5h4q4 0 10 -3.5t9 -11.5l598 -1268l591 1264q5 11 12 15t12 4h1q13 0 21.5 -7t9.5 -19l125 -1465v-6q0 -22 -26 -26h-1q-15 0 -22 6t-9 22l-116 1354l-573 -1223q-7 -14 -23 -14h-3q-17 0 -25 14l-577 1226l-115 -1355 q-3 -30 -31 -30h-1q-26 3 -26 29z" />
<glyph unicode="N" horiz-adv-x="1592" d="M164 35v1458q0 11 7 19.5t21 9.5h5q15 0 32 -20l1124 -1395v1386q0 29 29 29h1q28 0 28 -29v-1458q0 -35 -28 -35h-6q-14 0 -31 19l-1124 1399v-1383q0 -35 -28 -35h-1q-15 0 -22 9.5t-7 25.5z" />
<glyph unicode="O" horiz-adv-x="1767" d="M90 759q0 214 105.5 392.5t285 283t392.5 104.5t390 -104.5t280 -283t103 -392.5q0 -212 -103 -390t-280 -281.5t-390 -103.5t-393 103.5t-285 281.5t-105 390zM153 759q0 -196 96 -359.5t261 -258.5t363 -95q197 0 360 95t257 258t94 360q0 198 -94 362.5t-257 259.5 t-360 95t-362.5 -95.5t-261.5 -259.5t-96 -362z" />
<glyph unicode="P" horiz-adv-x="1266" d="M162 34v1459q0 29 29 29h497q128 0 237 -64t173 -172.5t64 -238.5q0 -128 -63.5 -236t-172.5 -171.5t-238 -63.5h-468v-542q0 -34 -28 -34h-1q-29 0 -29 34zM220 636h468q114 0 209 55t149.5 149t54.5 207q0 114 -54.5 210t-149.5 151t-209 55h-468v-827z" />
<glyph unicode="Q" horiz-adv-x="1767" d="M90 759q0 214 105.5 392.5t285 283t392.5 104.5t390 -104.5t280 -283t103 -392.5q0 -208 -98 -382.5t-268.5 -280t-376.5 -111.5v-212q0 -35 -27 -35h-1q-15 0 -22.5 9.5t-7.5 25.5v212q-207 6 -380.5 111.5t-274 281t-100.5 381.5zM153 759q0 -196 96 -359.5t261 -258.5 t363 -95q197 0 360 95t257 258t94 360q0 198 -94 362.5t-257 259.5t-360 95t-362.5 -95.5t-261.5 -259.5t-96 -362z" />
<glyph unicode="R" horiz-adv-x="1364" d="M162 30v1463q0 29 29 29h579q128 0 237 -64t172.5 -173.5t63.5 -237.5q0 -142 -76.5 -257t-201.5 -172l239 -577q2 -9 2 -11q0 -12 -9 -21t-19 -9h-4q-7 0 -15.5 5t-13.5 16l-239 574q-65 -19 -136 -19h-550v-546q0 -30 -28 -30h-1q-29 0 -29 30zM220 636h550 q114 0 209 55t149.5 149t54.5 207q0 114 -54.5 210t-149.5 151t-209 55h-550v-827z" />
<glyph unicode="S" horiz-adv-x="1339" d="M98 241q0 12 9 20l2 2q7 4 16 5q15 0 32 -21q83 -103 200 -156t286 -53q144 0 257.5 38.5t181.5 123.5t68 217q0 114 -78.5 182t-176.5 97.5t-250 59.5q-176 32 -288.5 81t-169 123.5t-56.5 180.5q0 126 65.5 215.5t187 136t286.5 46.5q146 0 253 -39.5t206 -134.5 q10 -10 9 -23q0 -11 -6 -19l-2 -2q-9 -5 -19 -6q-9 0 -17 5.5t-20 16.5q-64 54 -116 84t-120 44t-168 14q-125 0 -233 -33t-177.5 -108t-69.5 -197q0 -140 127.5 -215t341.5 -115q171 -34 278.5 -69t189.5 -113.5t82 -211.5q0 -145 -74 -243t-202 -146t-290 -48 q-171 0 -299.5 53.5t-231.5 178.5q-14 16 -14 29z" />
<glyph unicode="T" horiz-adv-x="1282" d="M74 1492v1q-1 29 29 29h1093q28 0 27 -29v-1q0 -30 -27 -30h-515v-1432q0 -30 -28 -30h-1q-30 0 -30 30v1432h-519q-30 0 -29 30z" />
<glyph unicode="U" horiz-adv-x="1538" d="M145 597v894q0 32 30 32h1q28 0 28 -32v-894q0 -154 75 -283t204 -204.5t284 -75.5t284 75.5t204 204.5t75 283v892q0 16 7.5 25t22.5 9h1q28 0 28 -34v-901q0 -167 -84 -307.5t-226 -223t-312 -82.5t-312 83.5t-226 226.5t-84 312z" />
<glyph unicode="V" horiz-adv-x="1425" d="M43 1494q0 13 9.5 21t18.5 8h4q5 0 11.5 -6t11.5 -17l586 -1402l584 1403q9 22 25 22h2q11 0 20.5 -7.5t9.5 -21.5q0 -11 -4 -18l-611 -1457q-8 -19 -23 -21h-5q-15 0 -25 21l-610 1458q-4 7 -4 17z" />
<glyph unicode="W" horiz-adv-x="2117" d="M35 1494q0 13 9.5 20.5t20.5 7.5h3q14 0 23 -20l587 -1405l585 1405q7 20 23 20h3q11 0 20.5 -7.5t9.5 -20.5q0 -5 -3 -13l-240 -578l339 -808l588 1407q7 20 23 20h3q11 0 21 -8t10 -21q0 -6 -3 -12l-613 -1460q-5 -12 -12.5 -16.5t-12.5 -4.5h-6q-6 0 -13.5 5t-12.5 16 l-342 808l-338 -808q-5 -12 -12.5 -16.5t-13.5 -4.5h-4q-18 0 -26 21l-613 1460q-3 9 -3 13z" />
<glyph unicode="X" horiz-adv-x="1192" d="M65 28q0 9 6 19l485 715l-482 713q-6 9 -7 19q0 12 8.5 20t18.5 8h1q15 0 26 -15l469 -694l472 696q12 15 25 15q11 0 21 -8t10 -21q0 -9 -7 -18l-486 -715l486 -716q6 -11 7 -19q0 -12 -9 -19.5t-19 -7.5h-1q-17 0 -27 14l-472 695l-471 -694q-11 -15 -23 -15 q-11 0 -21 7t-10 21z" />
<glyph unicode="Y" horiz-adv-x="1201" d="M60 1494q0 12 8 20t17 8h4h2q11 0 22 -16l482 -753l483 752q7 12 13.5 14.5t11.5 2.5h3q10 0 18 -8.5t8 -20.5q0 -9 -6 -17l-501 -783v-657q0 -36 -29 -36h-1q-15 0 -22 10t-7 26v657l-501 784q-5 9 -5 17z" />
<glyph unicode="Z" horiz-adv-x="1337" d="M45 29v1q0 5 3 12l1099 1424l-1026 -1q-36 0 -37 27v1q0 15 9.5 22t25.5 7l1085 2q27 1 29 -27v-6q-1 -6 -7 -17l-1093 -1416h1045q33 0 33 -28v-1q0 -29 -33 -29h-1104q-29 0 -29 29z" />
<glyph unicode="[" horiz-adv-x="524" d="M167 -172v1838q3 24 26 25h265q13 0 22 -8t9 -22v-1q0 -11 -9.5 -19.5t-21.5 -8.5h-233v-1774h233q13 0 22 -8t9 -22v-1q0 -11 -9.5 -19.5t-21.5 -8.5h-263q-11 0 -19.5 8t-8.5 21z" />
<glyph unicode="\" horiz-adv-x="741" d="M45 1492q0 13 10 21t21 8h3q15 0 22 -20l577 -1460q3 -7 4 -14q0 -14 -10.5 -20.5t-21.5 -6.5h-3q-16 0 -23 19l-576 1460q-3 7 -3 13z" />
<glyph unicode="]" horiz-adv-x="524" d="M19 -172q0 14 9 22t22 8h233v1774h-233q-13 0 -22 8.5t-9 19.5v1q0 14 9 22t22 8h265q23 -1 25 -25v-1838q0 -13 -8.5 -21t-18.5 -8h-263q-13 0 -22 9t-9 19v1z" />
<glyph unicode="^" horiz-adv-x="999" d="M253 1261q0 13 10 23l228 229q9 10 20 10t21 -10l224 -224q12 -12 12 -25q0 -11 -9 -20.5t-20 -9.5q-13 0 -25 13l-203 203l-206 -205q-12 -12 -24 -12q-11 0 -19 8l-1 1q-9 9 -8 19z" />
<glyph unicode="_" horiz-adv-x="1337" d="M95 -38q0 28 34 28h1058q13 0 22 -8t9 -21v-2q0 -11 -9 -19t-22 -8h-1058q-34 0 -34 29v1z" />
<glyph unicode="`" horiz-adv-x="534" d="M67 1605q0 12 8.5 20t20.5 9h2q7 0 13 -3.5t14 -17.5l136 -244q5 -14 6 -20q0 -12 -9 -18.5t-20 -7.5h-2q-15 0 -28 21l-135 243q-6 8 -6 18z" />
<glyph unicode="a" horiz-adv-x="1603" d="M121 643q0 180 94 336.5t249.5 249t328.5 92.5q131 0 252.5 -52t217 -145t148.5 -211v361q0 16 7 25.5t22 9.5h1q29 0 29 -35v-1239q0 -35 -29 -35h-1q-29 0 -29 35v339q-53 -117 -148 -208.5t-216.5 -143t-253.5 -51.5q-173 0 -328.5 91.5t-249.5 246t-94 334.5z M179 643q0 -164 86 -305t227.5 -224.5t298.5 -83.5q165 0 308.5 83t227.5 224t84 306q0 166 -89 308t-232.5 226.5t-298.5 84.5q-158 0 -299 -84t-227 -226t-86 -309z" />
<glyph unicode="b" horiz-adv-x="1616" d="M167 34v1619q0 16 7.5 25t22.5 9h1q28 0 28 -34v-741q53 119 149 212t220.5 145t258.5 52q177 0 330 -92t243.5 -248t90.5 -338q0 -180 -92.5 -334.5t-246 -246t-325.5 -91.5q-135 0 -259 51.5t-220 143t-149 208.5v-340q0 -34 -28 -34h-1q-15 0 -22.5 9t-7.5 25z M226 643q0 -164 86.5 -305.5t231.5 -224.5t311 -83q157 0 296.5 83t223 224.5t83.5 305.5q0 167 -82 309.5t-220.5 226t-300.5 83.5q-169 0 -313 -83.5t-230 -225.5t-86 -310z" />
<glyph unicode="c" horiz-adv-x="1293" d="M82 647q0 188 95 343t250 243t327 88q113 0 237 -45.5t212 -125.5q13 -11 13 -25q0 -13 -7.5 -21.5t-21.5 -8.5q-11 0 -20 10q-84 78 -191.5 117.5t-209.5 39.5q-162 0 -306 -80t-231.5 -221t-87.5 -314q0 -166 84 -308t227 -225.5t310 -83.5q130 0 229 41.5t184 115.5 q12 9 25 9q12 0 19 -8.5t7 -18.5q0 -16 -14 -27q-208 -171 -449 -171q-182 0 -339 92t-249.5 247.5t-92.5 336.5z" />
<glyph unicode="d" horiz-adv-x="1603" d="M123 643q0 182 91 338t247.5 248t339.5 92q133 0 253.5 -51.5t213 -143.5t143.5 -212v740q0 34 28 35h1q15 0 22.5 -9.5t7.5 -25.5v-1620q0 -16 -7.5 -25t-22.5 -9h-1q-28 0 -28 34v343q-52 -118 -145 -210t-211 -144t-244 -52q-192 0 -349.5 91t-248 245t-90.5 336z M181 643q0 -166 83.5 -307t227.5 -223.5t318 -82.5q157 0 295.5 83t222 224.5t83.5 305.5q0 168 -82 310t-222.5 225.5t-306.5 83.5q-164 0 -306.5 -84t-227.5 -225.5t-85 -309.5z" />
<glyph unicode="e" horiz-adv-x="1548" d="M94 642q0 181 90.5 337.5t244 249t334.5 92.5q187 0 342.5 -95.5t245 -244t89.5 -297.5v-5q0 -29 -30 -28h-1257v-9q0 -164 82.5 -305.5t223 -225t306.5 -83.5q101 0 179 23.5t129.5 55.5t112.5 80q12 10 26 9q10 0 16 -6l2 -2q6 -6 6 -16q0 -15 -13 -27 q-94 -80 -206 -127t-252 -47q-181 0 -335.5 91t-245 245t-90.5 335zM156 708h1225q-9 126 -90.5 255t-220.5 214t-307 85q-153 0 -286.5 -74.5t-218.5 -201.5t-102 -278z" />
<glyph unicode="f" horiz-adv-x="768" d="M39 1149v1q0 13 8 18.5t22 5.5h238v163q0 131 48.5 223t136 139t203.5 47q21 0 28 -11t7 -20v-2q0 -7 -7.5 -17t-31.5 -10q-106 0 -179 -44t-109.5 -123t-36.5 -182v-163h292q30 0 30 -24v-1q0 -28 -30 -28h-292v-1087q0 -34 -29 -34h-1q-29 0 -29 34v1087h-238 q-30 0 -30 28z" />
<glyph unicode="g" horiz-adv-x="1622" d="M138 655q0 176 93 329.5t249 245t334 91.5q128 0 248.5 -51.5t215.5 -142t148 -206.5v353q0 16 8 25t23 9q30 0 30 -34v-1019q0 -188 -71 -335.5t-186.5 -236t-249.5 -105.5q-47 -6 -98 -7q-61 0 -146 13t-147.5 36t-62.5 51q0 10 4 14l2 4l5 5q5 6 19 6q10 0 23 -6 q60 -30 139.5 -46t162.5 -16q103 0 179 22q98 29 183 114.5t135.5 212.5t50.5 275l-2 126q-51 -117 -142 -205t-211.5 -136t-259.5 -48q-176 0 -331.5 82.5t-250 234t-94.5 345.5zM196 655q0 -187 87 -324t228.5 -209t301.5 -72q163 0 297.5 73t217.5 198.5t98 274.5v117 q-19 146 -107 272t-222 201.5t-284 75.5q-173 0 -314 -82.5t-222 -222.5t-81 -302z" />
<glyph unicode="h" horiz-adv-x="1393" d="M187 35v1617q0 16 7 26.5t21 10.5h2q15 0 21.5 -10.5t6.5 -26.5v-644q49 87 129.5 157t181.5 109.5t209 39.5q149 0 265 -76.5t178.5 -199.5t62.5 -254v-749q0 -16 -6.5 -25.5t-21.5 -9.5h-1q-15 0 -22 9.5t-7 25.5v746q0 110 -55.5 219.5t-159.5 181.5t-243 72 q-117 0 -236 -61.5t-196.5 -165.5t-77.5 -224v-768q0 -16 -7 -25.5t-21 -9.5h-2q-15 0 -21.5 9.5t-6.5 25.5z" />
<glyph unicode="i" d="M161 1597v49q0 21 21 21h53q20 0 20 -23v-47q0 -23 -20 -24h-52q-13 0 -17.5 5.5t-4.5 18.5zM180 34v1241q0 33 30 33h1q29 0 29 -33v-1241q0 -34 -29 -34h-1q-15 0 -22.5 9t-7.5 25z" />
<glyph unicode="j" d="M-157 -396q0 7 8 17t32 10q110 0 183 49.5t108 129.5t35 172v1293q0 33 30 33h1q28 0 28 -33v-1294q0 -97 -42.5 -190.5t-130.5 -155.5t-217 -62q-22 0 -28.5 10.5t-6.5 18.5v2zM187 1597v49q0 21 21 21h52q20 0 21 -23v-47q0 -23 -21 -24h-51q-13 0 -17.5 5.5t-4.5 18.5 z" />
<glyph unicode="k" horiz-adv-x="1304" d="M170 36v1619q0 33 28 34h1q28 0 28 -34v-1037l738 675q11 10 17 12t13 2q11 0 20.5 -8.5t9.5 -22.5q0 -11 -10 -21l-453 -410l615 -796q9 -11 8 -20q0 -12 -8.5 -20t-19.5 -9q-10 0 -16.5 2.5t-17.5 15.5l-604 787l-292 -266v-503q0 -36 -28 -36h-1q-15 0 -21.5 10 t-6.5 26z" />
<glyph unicode="l" horiz-adv-x="446" d="M164 35v1617q0 16 7 26.5t22 10.5h1q15 0 22 -10.5t7 -26.5v-1617q0 -16 -7 -25.5t-22 -9.5h-1q-15 0 -22 9.5t-7 25.5z" />
<glyph unicode="m" horiz-adv-x="2148" d="M167 33v1241q0 34 28 34h1q28 0 28 -34l1 -198q42 79 110 131.5t145.5 77.5t149.5 25q174 0 277.5 -91.5t149.5 -224.5q30 87 88 159t144.5 114.5t196.5 42.5q147 0 250.5 -74.5t155 -187.5t51.5 -222v-792q0 -34 -26 -34h-1q-15 0 -23 9t-8 25v792q0 93 -42 191 t-132.5 165t-225.5 67q-131 0 -221.5 -67t-134 -165.5t-43.5 -189.5v-794q0 -33 -28 -33h-1q-30 0 -30 33v811q0 89 -42.5 183t-132.5 159t-224 65q-81 0 -174 -40t-160.5 -131t-67.5 -235v-812q0 -33 -30 -33h-1q-28 0 -28 33z" />
<glyph unicode="n" horiz-adv-x="1393" d="M185 33v1241q0 34 27 34h1q28 0 28 -34l2 -245q48 92 127.5 159t172 102.5t179.5 35.5q164 0 288 -79t190 -206t66 -267v-741q0 -33 -28 -33h-1q-30 0 -30 33v741q0 121 -60 235t-171 186t-256 72q-102 0 -213.5 -57.5t-187.5 -166.5t-76 -255v-755q0 -33 -30 -33h-1 q-28 0 -27 33z" />
<glyph unicode="o" horiz-adv-x="1533" d="M102 650q0 182 89.5 336.5t242 245t333.5 90.5q183 0 340.5 -91t250.5 -245t93 -336q0 -181 -93 -337.5t-250 -249t-339 -92.5q-180 0 -333.5 92.5t-243.5 248.5t-90 338zM161 650q0 -166 81.5 -309t221.5 -227t305 -84q173 0 316 84t225 226.5t82 309.5q0 166 -85 307 t-228.5 223.5t-311.5 82.5q-165 0 -304.5 -82t-220.5 -223t-81 -308z" />
<glyph unicode="p" horiz-adv-x="1605" d="M167 -397v1671q0 16 7.5 25t22.5 9h1q28 0 28 -34v-351q52 117 146 206.5t216 139t256 49.5q173 0 328.5 -89.5t250 -242t94.5 -331.5q0 -183 -89 -340t-244 -250.5t-340 -93.5q-137 0 -258.5 52t-214 144t-145.5 211v-775q0 -34 -28 -34h-1q-15 0 -22.5 9t-7.5 25z M226 655q0 -170 79.5 -313.5t221 -227.5t318.5 -84q165 0 306.5 84.5t224 228.5t82.5 312q0 163 -86 303t-227.5 222t-299.5 82q-167 0 -309.5 -81.5t-226 -221t-83.5 -304.5z" />
<glyph unicode="q" horiz-adv-x="1593" d="M89 655q0 179 94 331.5t250 242t329 89.5q133 0 254 -49.5t215 -139t148 -206.5v351q0 34 28 34h1q15 0 22.5 -9t7.5 -25v-1664q0 -16 -7.5 -25.5t-22.5 -9.5h-1q-28 0 -28 35v768q-53 -118 -145.5 -210.5t-214 -144.5t-257.5 -52q-186 0 -340.5 93.5t-243.5 250 t-89 340.5zM147 655q0 -167 83 -311.5t224 -229t307 -84.5q177 0 318 84t220.5 227.5t79.5 313.5q0 165 -83 304.5t-225.5 221t-309.5 81.5q-158 0 -300 -82t-228 -222t-86 -303z" />
<glyph unicode="r" horiz-adv-x="1110" d="M166 34v1241q0 33 29 33h1q28 0 28 -33v-272q38 95 117 160t173 96.5t181 31.5q74 0 156 -29.5t139 -69t57 -65.5q0 -9 -4 -12l-1 -1q-10 -12 -23 -12q-12 0 -23 9q-145 121 -297 121q-110 0 -219 -51.5t-182 -166.5t-73 -291v-689q0 -34 -29 -34h-1q-29 0 -29 34z" />
<glyph unicode="s" horiz-adv-x="1075" d="M82 301q0 26 17 32l3 1q6 2 11 2q13 0 21.5 -11.5t9.5 -29.5q5 -83 54 -144t130.5 -93t182.5 -32q82 0 165 27t141.5 93t58.5 175q0 139 -100 212t-268 114q-122 29 -206.5 68.5t-135 106.5t-50.5 168q0 90 44.5 165.5t132.5 121t210 45.5q99 0 188.5 -44.5t146.5 -118 t65 -157.5v-9q0 -21 -10 -26q-5 -3 -13 -3q-11 0 -20 6.5t-11 19.5q-10 77 -61 140t-127 98t-158 35q-95 0 -169.5 -34.5t-116.5 -96.5t-42 -142q0 -127 99.5 -190.5t238.5 -92.5q421 -93 421 -386q0 -123 -65 -202.5t-162 -115.5t-196 -36q-139 0 -236 50t-145 127.5 t-48 156.5z" />
<glyph unicode="t" horiz-adv-x="636" d="M22 1165q0 27 30 26h174v345q0 33 28 33h1q30 0 30 -33v-345h248q27 0 27 -26v-1q0 -10 -7.5 -18t-19.5 -8h-248v-917q0 -65 34.5 -114.5t112.5 -49.5h42q39 0 39 -25v-2q0 -7 -6 -18.5t-27 -11.5q-62 0 -87 4q-81 13 -124 71.5t-43 141.5v921h-174q-30 0 -30 27z" />
<glyph unicode="u" horiz-adv-x="1386" d="M156 546v729q0 33 27 33h2q30 0 29 -33v-729q0 -151 69.5 -270.5t186.5 -186t252 -66.5q113 0 226.5 58t188 163t74.5 240v791q0 33 30 33h1q28 0 27 -33v-1241q0 -34 -27 -34h-1q-28 0 -28 34l-2 213q-49 -85 -129 -149.5t-174 -98.5t-183 -34q-166 0 -296 81.5 t-201.5 215.5t-71.5 284z" />
<glyph unicode="v" horiz-adv-x="1204" d="M41 1280q0 12 10 19.5t20 7.5q18 0 26 -20l509 -1193l503 1192q7 19 26 20q11 0 21 -7.5t10 -20.5q0 -6 -3 -13l-528 -1245q-6 -11 -14 -16t-13 -5h-4q-6 0 -14 5t-13 16l-533 1246q-3 9 -3 14z" />
<glyph unicode="w" horiz-adv-x="1947" d="M37 1281q0 12 10.5 19.5t20.5 7.5q18 0 26 -19l509 -1195l503 1195q7 19 26 19q11 0 21 -7.5t10 -20.5q0 -6 -4 -13l-163 -384l326 -788l503 1194q7 19 26 19q11 0 21 -7.5t10 -20.5q0 -6 -4 -13l-528 -1247q-5 -11 -13 -16t-13 -5h-6q-17 2 -25 21l-326 794l-336 -794 q-5 -12 -13 -16.5t-13 -4.5h-6q-17 2 -25 21l-533 1247q-3 9 -4 14z" />
<glyph unicode="x" horiz-adv-x="984" d="M33 1278q0 13 9 21t20 8q17 0 28 -16l403 -600l403 600q7 11 12 14t14 3q13 0 22 -7.5t9 -20.5q0 -11 -7 -20l-416 -621l408 -591q6 -10 6 -21q0 -12 -7 -19.5t-21 -7.5h-1q-16 0 -26 15l-396 570l-396 -570q-11 -15 -27 -15q-29 0 -28 27q0 12 6 21l406 591l-415 621 q-6 10 -6 18z" />
<glyph unicode="y" horiz-adv-x="1204" d="M38 1279q0 13 10.5 21t20.5 8q17 0 26 -21l498 -1191l498 1188q10 23 26 24q13 0 22 -7.5t9 -20.5q0 -7 -3 -17l-698 -1669q-5 -13 -13 -18t-14 -5q-12 0 -20.5 7t-8.5 21q0 10 5 18l167 408l-521 1241q-3 6 -4 13z" />
<glyph unicode="z" horiz-adv-x="1212" d="M115 29q0 10 11 26l799 1194h-734q-16 0 -25.5 7t-9.5 22q0 19 11.5 24.5t23.5 5.5h789q11 0 21 -9t10 -21q0 -10 -6 -19l-807 -1200h779q35 0 35 -28q0 -19 -12 -25t-23 -6h-832q-12 0 -21 8.5t-9 20.5z" />
<glyph unicode="{" horiz-adv-x="634" d="M69 742v6q0 8 8 17t28 9q39 0 72.5 13t61.5 66t28 160v396q0 188 101 251t210 63q13 0 22 -8t9 -22v-1q0 -11 -9 -19.5t-22 -8.5q-48 0 -100.5 -11.5t-102.5 -66.5t-50 -171v-406q0 -110 -28 -173.5t-74 -90.5q45 -29 73.5 -92t28.5 -172v-385q0 -156 80 -202.5 t166 -46.5q17 0 27.5 -6.5t10.5 -20.5v-1q0 -14 -9 -22t-22 -8q-109 0 -210 63t-101 250v375q0 109 -28.5 161.5t-62 65t-73.5 12.5h-6q-12 0 -19.5 7t-8.5 19z" />
<glyph unicode="|" horiz-adv-x="514" d="M212 -364v1856q0 29 29 29h1q28 0 28 -29v-1856q0 -30 -28 -30h-1q-29 0 -29 30z" />
<glyph unicode="}" horiz-adv-x="730" d="M37 -180q0 14 11 20.5t28 6.5q85 0 165 46.5t80 202.5v385q0 109 29 172t73 92q-46 28 -74 91t-28 173v406q0 115 -49.5 170.5t-102.5 67t-101 11.5q-13 0 -22 8.5t-9 19.5v1q0 14 9 22t22 8q109 0 210.5 -63t101.5 -251v-396q0 -108 27.5 -160.5t61 -65.5t73.5 -13 q19 0 27 -9t8 -17v-6q-1 -12 -8.5 -19t-19.5 -7h-6q-39 0 -73 -12.5t-62 -65t-28 -161.5v-375q0 -188 -101.5 -250.5t-210.5 -62.5q-13 0 -22 8t-9 22v1z" />
<glyph unicode="~" horiz-adv-x="880" d="M147 533q0 11 12 23q41 47 76 68t80 21q27 0 51 -11t63 -33q37 -22 62 -33.5t52 -11.5q25 0 44 13.5t42 39.5q15 16 25.5 24t19.5 8q12 0 19 -8.5t7 -17.5q0 -14 -12 -27q-35 -46 -73 -68.5t-83 -22.5q-28 0 -54 12.5t-60 34.5q-35 21 -57 32t-46 11q-35 0 -56.5 -14.5 t-51.5 -48.5q-10 -10 -16 -14t-15 -4q-6 0 -18 8l-2 2q-9 9 -9 17z" />
<glyph unicode="&#xa1;" d="M181 1244v50q0 14 14 14h52q14 0 14 -14v-50q0 -9 -2.5 -12t-11.5 -3h-52q-14 0 -14 15zM192 -332v1243q0 15 7.5 24t21.5 9h3q26 0 26 -35v-1241q0 -34 -28 -34h-1q-13 0 -21 10t-8 24z" />
<glyph unicode="&#xa2;" horiz-adv-x="1293" d="M82 647q0 181 89.5 332t237.5 240.5t315 99.5v173q0 13 8 22t22 9h1q11 0 19.5 -9t8.5 -22v-173q102 -3 201 -40t187 -108q13 -11 13 -24q0 -29 -29 -29q-11 0 -21 7q-84 66 -178.5 101.5t-189.5 35.5q-160 0 -304 -80.5t-232.5 -221.5t-88.5 -313q0 -166 81.5 -306 t222 -222t306.5 -82q111 0 208 33t173 97q12 10 24 10t19 -8.5t7 -19.5q0 -16 -14 -26q-76 -66 -174.5 -102t-210.5 -41v-165q0 -34 -29 -34h-1q-29 0 -29 34v165q-176 6 -323 97.5t-233 241.5t-86 328z" />
<glyph unicode="&#xa3;" horiz-adv-x="1152" d="M82 736v1q0 29 34 29h72v270q0 132 72 244t190.5 177.5t250.5 65.5q83 0 182 -35.5t155 -82.5q4 -4 12 -11t13 -14t5 -15q0 -5 -2 -11l-3 -4q-6 -12 -21 -11q-13 0 -20 7q-54 47 -141 85t-177 38q-107 0 -213.5 -56.5t-176 -160t-69.5 -234.5v-252h409q13 0 22 -8t9 -22 v-1q0 -11 -9 -19.5t-22 -8.5h-409v-647h822q36 0 36 -28v-1q0 -15 -10 -23t-26 -8h-850q-29 0 -29 30v677h-72q-34 0 -34 29z" />
<glyph unicode="&#xa4;" horiz-adv-x="1104" d="M149 555q0 69 23 132t66 114l-69 70q-10 10 -10 23q0 12 7 19h1q10 10 21 10q12 0 22 -10l69 -69q51 46 114.5 70.5t133.5 24.5q135 0 244 -87l61 61q12 10 22 10q11 0 21 -10h1q6 -6 6 -19q0 -14 -8 -23l-60 -59q48 -52 74 -118.5t26 -138.5q0 -71 -25.5 -135.5 t-72.5 -116.5l51 -51q13 -13 13 -26q0 -10 -10 -19v-1q-10 -10 -19 -10q-15 0 -25 14l-53 51q-52 -42 -115 -64.5t-131 -22.5q-71 0 -134.5 25t-116.5 71l-59 -60q-14 -14 -26 -14q-10 0 -19 10v1q-10 10 -10 19q0 13 13 26l61 61q-86 107 -87 242zM208 555q0 -87 43 -161 t116.5 -117.5t159.5 -43.5q89 0 164 43.5t119.5 117.5t44.5 161q0 86 -44.5 161t-120.5 119.5t-163 44.5q-85 0 -159 -44.5t-117 -119.5t-43 -161z" />
<glyph unicode="&#xa5;" horiz-adv-x="1214" d="M49 1492q0 11 7.5 18.5t18.5 10.5l3 1l3 1q11 0 21 -18l471 -736l494 736q12 18 21 18l3 -1l3 -1q11 -3 18.5 -10.5t7.5 -18.5q0 -7 -5 -16l-512 -765v-99h277q13 0 21 -7.5t8 -22.5v-1q0 -11 -8.5 -19t-20.5 -8h-277v-219h277q13 0 21 -7.5t8 -22.5v-1q0 -11 -8.5 -19.5 t-20.5 -8.5h-277v-241q0 -35 -29 -35h-1q-15 0 -22 9.5t-7 25.5v241h-281q-33 0 -33 29v1q0 29 33 29h281v219h-281q-33 0 -33 28v1q0 29 33 29h281v97l-490 767q-5 9 -5 16z" />
<glyph unicode="&#xa6;" horiz-adv-x="612" d="M191 -362v792q0 29 29 29h1q28 0 28 -29v-792q0 -30 -28 -29h-1q-29 0 -29 29zM191 701v791q0 29 29 29h1q28 0 28 -29v-791q0 -30 -28 -30h-1q-29 0 -29 30z" />
<glyph unicode="&#xa7;" horiz-adv-x="1081" d="M127 169q0 17 14 23l2 1q6 3 14 3q17 0 24 -16q41 -90 112.5 -136.5t145.5 -46.5q59 0 125.5 23.5t114.5 73.5t48 127q0 66 -46.5 117t-115 82.5t-135.5 45.5q-69 14 -135.5 48.5t-109.5 89.5t-43 123q0 70 31.5 131t88 102t129.5 53q-96 31 -161.5 88t-65.5 145 q0 83 37 144.5t104.5 95t156.5 33.5q98 0 170.5 -39t134.5 -131q4 -5 4 -17q0 -15 -9 -21l-4 -2q-7 -4 -16 -4q-19 0 -26 16q-80 140 -254 140q-67 0 -121.5 -25.5t-86.5 -73.5t-32 -112q0 -63 51 -107.5t114 -68.5t113 -34q160 -37 234.5 -108.5t74.5 -176.5 q0 -103 -65.5 -173t-165.5 -98q91 -38 149 -103t58 -156t-50 -155.5t-129.5 -97.5t-166.5 -33q-64 0 -127 30.5t-112 80.5t-71 107q-2 4 -2 12zM199 731q0 -77 70 -126.5t159 -76.5q10 -2 23.5 -2h18.5q68 0 133 23.5t106.5 74t41.5 127.5q0 91 -59 141.5t-165 79.5l-27 1 q-73 0 -141.5 -25.5t-114 -80t-45.5 -136.5z" />
<glyph unicode="&#xa8;" horiz-adv-x="852" d="M181 1349v61q0 27 27 27h65q26 0 26 -30v-58q0 -30 -26 -30h-64q-16 0 -22 7t-6 23zM512 1349v61q0 27 27 27h65q26 0 25 -30v-58q0 -30 -25 -30h-64q-16 0 -22 7t-6 23z" />
<glyph unicode="&#xa9;" horiz-adv-x="1767" d="M105 759q0 212 104.5 391t283 284t389.5 105q210 0 389 -105t284.5 -284t105.5 -391q0 -210 -105.5 -388t-284.5 -282.5t-389 -104.5q-211 0 -389.5 104t-283 282t-104.5 389zM163 759q0 -193 97.5 -357.5t263 -262t358.5 -97.5t359 97.5t264 262t98 357.5q0 194 -98 360 t-264 264t-359 98t-358.5 -98t-263 -263.5t-97.5 -360.5zM460 762q0 124 61 227.5t165.5 165t229.5 61.5q77 0 147 -24.5t127 -72.5q13 -11 13 -27q0 -10 -3 -13l-3 -4q-6 -9 -20 -8q-14 0 -28 10q-112 81 -232 81q-107 0 -199 -53.5t-146.5 -145t-54.5 -197.5 q0 -103 52 -195t142 -148t200 -57q64 0 127.5 21.5t112.5 64.5q6 6 19 6q16 0 20 -7l4 -4q4 -4 4 -17t-8 -21q-54 -48 -125.5 -74.5t-150.5 -26.5q-124 0 -228 61.5t-165 166.5t-61 230z" />
<glyph unicode="&#xaa;" horiz-adv-x="1040" d="M116 1166q0 103 51.5 191t139.5 139.5t191 51.5q101 0 185.5 -48.5t136.5 -132.5v128q0 14 8.5 22.5t23.5 8.5h1q12 0 20 -9t8 -22l9 -670q0 -12 -10.5 -22t-21.5 -10h-3q-15 0 -25 9.5t-10 23.5v134q-39 -61 -79 -97.5t-98 -56.5t-145 -20q-103 0 -191 51.5t-139.5 138 t-51.5 190.5zM176 1166q0 -88 43.5 -161.5t118 -115.5t160.5 -42t160 42t116.5 115.5t42.5 161.5q0 85 -43 158.5t-116 117.5t-160 44q-86 0 -160.5 -44t-118 -117.5t-43.5 -158.5z" />
<glyph unicode="&#xab;" horiz-adv-x="1382" d="M145 573q1 6 8 13l534 528q12 12 27 11q10 0 15 -5l2 -2q10 -10 9 -21q0 -13 -10 -24l-507 -500l507 -500q11 -11 10 -24q0 -12 -9 -21l-2 -2q-5 -5 -15 -6q-15 0 -27 12l-534 528q-7 7 -8 13zM629 573q1 6 8 13l534 528q12 12 27 11q10 0 15 -5l2 -2q10 -10 10 -21 q0 -13 -11 -24l-507 -500l507 -500q11 -11 11 -24q0 -12 -10 -21l-2 -2q-5 -5 -15 -6q-15 0 -27 12l-534 528q-7 7 -8 13z" />
<glyph unicode="&#xac;" horiz-adv-x="1124" d="M115 752q0 12 9 18.5t23 6.5h747q16 0 23 -6.5t7 -23.5v-362q0 -29 -24 -29h-6q-29 0 -29 29v333h-718q-27 0 -30 21l-1 8q0 2 -0.5 2.5t-0.5 2.5z" />
<glyph unicode="&#xad;" horiz-adv-x="1106" d="M176 716v1q0 29 33 29h704q13 0 21 -7.5t8 -22.5v-1q0 -11 -8.5 -19.5t-20.5 -8.5h-704q-33 0 -33 29z" />
<glyph unicode="&#xae;" horiz-adv-x="1798" d="M121 756q0 211 104 389.5t282 282.5t388 104t387.5 -104t281.5 -282.5t104 -389.5q0 -210 -104 -387t-281.5 -281t-387.5 -104t-388 104t-282 281t-104 387zM181 756q0 -191 96.5 -354.5t261 -260t356.5 -96.5q191 0 355 96.5t260.5 260t96.5 354.5q0 192 -96.5 356.5 t-260 261t-355.5 96.5t-356.5 -96.5t-261 -261t-96.5 -356.5zM613 354v837q0 16 17 16h332q74 0 136.5 -36t98.5 -98.5t36 -135.5q0 -84 -46.5 -153t-121.5 -99l146 -310q3 -6 3 -11q0 -11 -8.5 -20t-20.5 -9h-1q-4 0 -12 3t-14 10l-152 321q-23 -3 -44 -3h-290v-312 q0 -13 -9 -20.5t-20 -7.5h-1q-13 0 -21 7.5t-8 20.5zM672 723h266q67 0 121 25.5t84.5 74t30.5 114.5q0 65 -30.5 113.5t-84.5 74t-121 25.5h-266v-427z" />
<glyph unicode="&#xaf;" horiz-adv-x="999" d="M121 1359v1q0 29 34 29h659q13 0 22 -8t9 -22v-1q0 -11 -9 -19.5t-22 -8.5h-659q-34 0 -34 29z" />
<glyph unicode="&#xb0;" horiz-adv-x="698" d="M90 1071q0 70 35.5 130.5t96 96t130.5 35.5q71 0 131.5 -35t95.5 -96t35 -131q0 -71 -35 -131.5t-95.5 -95.5t-131.5 -35q-70 0 -131 35t-96 95t-35 132zM157 1068q0 -53 25.5 -97.5t70 -70.5t96.5 -26q53 0 98 26t70.5 70.5t25.5 97.5t-25.5 98t-70 70.5t-98.5 25.5 q-52 0 -96.5 -26t-70 -70.5t-25.5 -97.5z" />
<glyph unicode="&#xb1;" horiz-adv-x="1017" d="M123 652v1q0 29 34 29h294v330q0 13 8 22t22 9h1q11 0 19.5 -9t8.5 -22v-330h306q13 0 22 -8t9 -22v-1q0 -11 -9 -19.5t-22 -8.5h-306v-298q0 -34 -29 -34h-1q-29 0 -29 34v298h-294q-34 0 -34 29zM140 29v1q0 30 30 30h659q15 0 23.5 -8t8.5 -21v-2q0 -13 -8.5 -21 t-23.5 -8h-659q-15 0 -22.5 8t-7.5 21z" />
<glyph unicode="&#xb2;" horiz-adv-x="790" d="M111 719v3q0 18 19 37l383 363q43 42 62 77t19 77q0 57 -29.5 100t-78.5 66.5t-107 23.5q-57 0 -104 -26.5t-74 -72.5t-27 -103q0 -16 -10 -22.5t-18 -6.5h-2q-11 0 -19.5 7.5t-8.5 21.5q0 71 35 130.5t95 94t133 34.5q76 0 138.5 -31t100 -87t37.5 -128 q0 -58 -21.5 -102t-50.5 -70l-386 -360h457q13 0 21 -7t8 -19v-4q0 -11 -8.5 -19.5t-20.5 -8.5h-513q-13 0 -21.5 10t-8.5 22z" />
<glyph unicode="&#xb3;" horiz-adv-x="725" d="M89 934q0 14 9.5 21.5t17.5 7.5h2q14 0 21.5 -8.5t7.5 -20.5q0 -58 28.5 -104.5t76 -73t104.5 -26.5q58 0 107 26t78 72t29 102q0 57 -29 102t-78 71.5t-107 26.5q-12 0 -21 7.5t-9 19.5v4q0 12 10 19t20 7q66 0 109.5 36.5t43.5 97.5q0 63 -44 103.5t-109 40.5 q-64 0 -105 -39.5t-41 -103.5q0 -12 -8.5 -21.5t-22.5 -9.5h-3q-14 0 -21.5 9.5t-7.5 23.5q0 58 28.5 103t76.5 70t104 25q58 0 106.5 -25.5t77.5 -71.5t29 -103q0 -52 -23.5 -93.5t-65.5 -66.5q69 -35 108 -95t39 -138q0 -74 -36 -132.5t-98.5 -91.5t-136.5 -33t-135 34 t-96.5 94.5t-35.5 133.5z" />
<glyph unicode="&#xb4;" horiz-adv-x="547" d="M234 1348q0 9 5 19l136 245q7 14 13.5 17.5t13.5 3.5h2q11 -1 20 -9t9 -20q0 -10 -5 -18l-136 -243q-12 -21 -27 -21h-3q-11 1 -19.5 8t-8.5 18z" />
<glyph unicode="&#xb5;" horiz-adv-x="1214" d="M187 -364v1335q0 30 31 30h3q13 0 19.5 -9.5t6.5 -22.5v-576q0 -99 47.5 -181.5t130.5 -130t183 -47.5t183 47.5t130.5 129.5t47.5 182v577q0 34 28 34h5q11 0 19.5 -8t8.5 -25v-557q0 -116 -53 -217.5t-149 -162.5t-220 -61q-114 0 -208 54t-153 149v-539 q0 -17 -8.5 -24.5t-18.5 -7.5h-2q-31 0 -31 31z" />
<glyph unicode="&#xb6;" horiz-adv-x="1411" d="M69 1050q0 129 63 237.5t171 172t236 63.5h806q32 0 32 -29v-2q0 -14 -9 -20.5t-23 -6.5h-278v-1435q0 -30 -27 -30h-2q-13 0 -21 8.5t-8 21.5v1435h-310v-1435q0 -13 -7.5 -21.5t-21.5 -8.5h-2q-11 0 -19.5 8.5t-8.5 21.5v548q-159 0 -288 50.5t-206 157t-77 264.5z" />
<glyph unicode="&#xb7;" horiz-adv-x="442" d="M160 533v76q0 11 6 18t17 7h77q14 0 19 -7t5 -20v-72q0 -25 -19 -24h-86q-19 0 -19 22z" />
<glyph unicode="&#xb8;" horiz-adv-x="569" d="M178 -465q0 12 8.5 20t20.5 8q52 0 87.5 36t35.5 87q0 46 -28.5 76.5t-75.5 43.5q-3 1 -16 3.5t-21 8.5t-8 13v197q0 29 26 29h1q15 0 21 -6.5t6 -22.5v-162q65 -11 108.5 -63t43.5 -117q0 -49 -24 -90.5t-65 -66t-90 -24.5q-13 0 -21.5 8.5t-8.5 21.5z" />
<glyph unicode="&#xb9;" horiz-adv-x="432" d="M86 1455q0 20 17 28l85 36q7 4 22 4h2q10 0 16.5 -7t6.5 -18v-787q0 -28 -27 -27h-3q-12 0 -20 7.5t-8 19.5v736l-48 -20q-6 -2 -13 -2q-20 0 -26 17l-1 3z" />
<glyph unicode="&#xba;" horiz-adv-x="1099" d="M138 1166q0 103 51.5 191t139 139.5t190.5 51.5t191 -51.5t139 -139.5t51 -191q0 -113 -53 -200t-141 -133.5t-187 -46.5q-103 0 -190.5 51.5t-139 138t-51.5 190.5zM198 1166q0 -88 44 -161t117.5 -115.5t159.5 -42.5q87 0 161 42t116.5 115t42.5 162q0 85 -43 158.5 t-116.5 117.5t-160.5 44q-86 0 -159.5 -44t-117.5 -117.5t-44 -158.5z" />
<glyph unicode="&#xbb;" horiz-adv-x="1390" d="M146 49q0 13 11 24l506 500l-506 500q-11 11 -11 24q0 12 10 21l2 2q5 5 15 5q15 0 26 -11l535 -528q7 -7 7 -13t-7 -13l-535 -528q-12 -12 -26 -12q-10 0 -15 6l-2 2q-10 10 -10 21zM630 49q0 13 11 24l507 500l-507 500q-11 11 -11 24q0 12 10 21l2 2q5 5 15 5 q15 0 27 -11l534 -528q7 -7 8 -13q-1 -6 -8 -13l-534 -528q-12 -12 -27 -12q-10 0 -15 6l-2 2q-10 10 -10 21z" />
<glyph unicode="&#xbc;" horiz-adv-x="1437" d="M106 1455q0 20 17 28l84 36q7 4 22 4h2q10 0 16.5 -7t6.5 -18v-787q0 -28 -27 -27h-3q-12 0 -20 7.5t-8 19.5v736l-48 -20q-6 -2 -13 -2q-20 0 -26 17l-1 3zM210 29q0 11 5 18l791 1457q10 14 23 14h1q15 0 22 -8t7 -19q0 -7 -5 -16l-794 -1464q-10 -11 -22 -11h-1 q-13 2 -20 10t-7 19zM820 182q0 14 14 32l407 598q17 28 36 27h2q22 0 22 -27v-594h65q11 0 21 -7t10 -20v-2q0 -14 -9 -21t-22 -7h-65v-130q0 -14 -8.5 -22.5t-17.5 -8.5h-4q-10 0 -18.5 8.5t-8.5 22.5v130h-392q-32 0 -32 21zM907 218h337v495z" />
<glyph unicode="&#xbd;" horiz-adv-x="1613" d="M148 1455q0 20 17 28l85 36q7 4 22 4h2q10 0 16.5 -7t6.5 -18v-787q0 -28 -27 -27h-3q-12 0 -20 7.5t-8 19.5v736l-48 -20q-6 -2 -13 -2q-20 0 -27 17l-1 3zM287 29q0 11 5 18l791 1457q10 14 23 14h1q15 0 22 -8t7 -19q0 -7 -5 -16l-794 -1464q-10 -11 -22 -11h-1 q-13 2 -20 10t-7 19zM980 33v3q0 18 19 38l383 362q43 42 62 77t19 77q0 57 -29 100t-78 66.5t-108 23.5q-57 0 -103.5 -26.5t-74 -72.5t-27.5 -103q0 -16 -10 -22.5t-18 -6.5h-2q-11 0 -19 7.5t-8 21.5q0 71 34.5 130.5t94.5 94t133 34.5q76 0 139 -31t100 -87t37 -128 q0 -58 -21 -102t-50 -70l-386 -360h456q13 0 21 -7t8 -19v-4q0 -11 -8.5 -19.5t-20.5 -8.5h-513q-13 0 -21.5 10t-8.5 22z" />
<glyph unicode="&#xbe;" horiz-adv-x="1460" d="M79 934q0 14 9.5 21.5t18.5 7.5h2q14 0 21.5 -8.5t7.5 -20.5q0 -58 28 -104.5t75.5 -73t105.5 -26.5t106.5 26t77.5 72t29 102q0 57 -29 102t-78 71.5t-106 26.5q-12 0 -21 7.5t-9 19.5v4q0 12 9.5 19t20.5 7q66 0 109 36.5t43 97.5q0 63 -43.5 103.5t-108.5 40.5 q-64 0 -105 -39.5t-41 -103.5q0 -12 -9 -21.5t-22 -9.5h-4q-14 0 -21 9.5t-7 23.5q0 58 28 103t76 70t105 25q58 0 106 -25.5t77 -71.5t29 -103q0 -52 -23.5 -93.5t-65.5 -66.5q69 -35 108.5 -95t39.5 -138q0 -74 -36.5 -132.5t-99 -91.5t-135.5 -33q-74 0 -135.5 34 t-97 94.5t-35.5 133.5zM366 29q0 11 5 18l791 1457q10 14 23 14h1q15 0 22 -8t7 -19q0 -7 -5 -16l-794 -1464q-10 -11 -22 -11h-1q-13 2 -20 10t-7 19zM802 181q0 14 14 32l406 598q17 28 37 27h2q22 0 22 -27v-594h65q11 0 21 -7t10 -20v-2q0 -14 -9 -21t-22 -7h-65v-130 q0 -14 -8.5 -22.5t-17.5 -8.5h-4q-10 0 -18.5 8.5t-8.5 22.5v130h-392q-32 0 -32 21zM889 217h337v494z" />
<glyph unicode="&#xbf;" horiz-adv-x="1163" d="M62 112q0 132 64.5 224t196.5 174q69 42 115 78t77.5 85.5t31.5 112.5v189q0 14 9.5 22t19.5 8h3q9 0 17.5 -8t8.5 -22v-209q0 -95 -75.5 -169t-151.5 -118q-80 -50 -135 -99.5t-89.5 -116.5t-34.5 -153q0 -100 62.5 -182t162 -128.5t202.5 -46.5q119 0 220 52 t160.5 145.5t59.5 211.5q0 11 7.5 20t20.5 9h3q10 0 18 -7.5t8 -19.5q0 -133 -66 -240t-179.5 -168t-249.5 -61q-141 0 -252 59.5t-172.5 156t-61.5 201.5zM526 1233v58q0 16 16 16h61q16 0 16 -16v-58q0 -18 -16 -18h-61q-10 0 -13 3.5t-3 14.5z" />
<glyph unicode="&#xc0;" horiz-adv-x="1468" d="M76 27q0 9 3 16l612 1456q9 20 26 22h5q6 0 13.5 -5t13.5 -17l611 -1456q3 -7 3 -14q0 -12 -9.5 -20.5t-20.5 -8.5h-3q-15 0 -23 20l-173 413h-830l-173 -412q-9 -21 -22 -21h-3q-13 0 -21.5 7t-8.5 20zM329 492h780l-389 932zM550 1950q0 12 8.5 20t20.5 9h2 q7 0 13.5 -4t13.5 -18l137 -244q5 -14 5 -19q0 -12 -9 -19t-20 -8h-2q-15 0 -28 22l-135 243q-6 8 -6 18z" />
<glyph unicode="&#xc1;" horiz-adv-x="1468" d="M76 27q0 9 3 16l612 1456q9 20 26 22h5q6 0 13.5 -5t13.5 -17l611 -1456q3 -7 3 -14q0 -12 -9.5 -20.5t-20.5 -8.5h-3q-15 0 -23 20l-173 413h-830l-173 -412q-9 -21 -22 -21h-3q-13 0 -21.5 7t-8.5 20zM329 492h780l-389 932zM739 1712q0 9 6 19l136 244q7 14 13 18 t14 4h2q11 -1 20 -9t9 -20q0 -10 -6 -18l-135 -243q-13 -22 -28 -22h-2q-11 1 -20 8t-9 19z" />
<glyph unicode="&#xc2;" horiz-adv-x="1468" d="M76 27q0 9 3 16l612 1456q9 20 26 22h5q6 0 13.5 -5t13.5 -17l611 -1456q3 -7 3 -14q0 -12 -9.5 -20.5t-20.5 -8.5h-3q-15 0 -23 20l-173 413h-830l-173 -412q-9 -21 -22 -21h-3q-13 0 -21.5 7t-8.5 20zM329 492h780l-389 932zM473 1701q0 13 10 24l227 228q10 11 21 11 t21 -11l224 -224q12 -12 12 -24q0 -11 -9 -20.5t-20 -9.5q-13 0 -26 12l-202 203l-206 -205q-12 -12 -25 -11q-11 0 -18 7l-1 1q-9 9 -8 19z" />
<glyph unicode="&#xc3;" horiz-adv-x="1468" d="M76 27q0 9 3 16l612 1456q9 20 26 22h5q6 0 13.5 -5t13.5 -17l611 -1456q3 -7 3 -14q0 -12 -9.5 -20.5t-20.5 -8.5h-3q-15 0 -23 20l-173 413h-830l-173 -412q-9 -21 -22 -21h-3q-13 0 -21.5 7t-8.5 20zM329 492h780l-389 932zM446 1698q0 11 12 23q41 47 76 68t79 21 q27 0 51.5 -11t62.5 -34q37 -22 62.5 -33t52.5 -11q25 0 44 13.5t42 39.5q15 16 25 24t20 8q12 0 18.5 -8.5t6.5 -17.5q0 -14 -11 -27q-35 -46 -73 -68.5t-83 -22.5q-28 0 -54 12t-60 35q-35 21 -57 31.5t-47 10.5q-35 0 -56.5 -14t-50.5 -48q-10 -10 -16.5 -14.5 t-14.5 -4.5q-6 0 -18 9l-3 2q-9 9 -8 17z" />
<glyph unicode="&#xc4;" horiz-adv-x="1468" d="M76 27q0 9 3 16l612 1456q9 20 26 22h5q6 0 13.5 -5t13.5 -17l611 -1456q3 -7 3 -14q0 -12 -9.5 -20.5t-20.5 -8.5h-3q-15 0 -23 20l-173 413h-830l-173 -412q-9 -21 -22 -21h-3q-13 0 -21.5 7t-8.5 20zM329 492h780l-389 932zM498 1708v61q0 26 27 26h65q26 0 25 -30 v-57q0 -30 -25 -30h-64q-16 0 -22 7t-6 23zM829 1708v61q-1 26 26 26h66q26 0 25 -30v-57q0 -30 -25 -30h-64q-16 0 -22 7t-6 23z" />
<glyph unicode="&#xc5;" horiz-adv-x="1468" d="M76 27q0 9 3 16l612 1456q9 20 26 22h5q6 0 13.5 -5t13.5 -17l611 -1456q3 -7 3 -14q0 -12 -9.5 -20.5t-20.5 -8.5h-3q-15 0 -23 20l-173 413h-830l-173 -412q-9 -21 -22 -21h-3q-13 0 -21.5 7t-8.5 20zM329 492h780l-389 932zM565 1823q0 45 22 82.5t59.5 59.5t82.5 22 q44 0 82 -22t60.5 -59.5t22.5 -82.5t-22.5 -82.5t-60.5 -59t-82 -21.5q-45 0 -82.5 21.5t-59.5 59t-22 82.5zM618 1823q0 -49 31.5 -80t79.5 -31q50 0 82.5 31t32.5 80t-32.5 81.5t-82.5 32.5q-48 0 -79.5 -32.5t-31.5 -81.5z" />
<glyph unicode="&#xc6;" horiz-adv-x="2213" d="M26 27q0 12 9 24l1134 1457q11 14 26 14h939q34 0 35 -29v-1q0 -15 -9.5 -22.5t-25.5 -7.5h-907v-644h734q16 0 26 -7t10 -22v-1q0 -15 -10 -22t-26 -7h-734v-699h929q34 0 34 -29v-1q0 -15 -9 -22.5t-25 -7.5h-958q-29 0 -29 30v402h-765l-326 -418q-9 -11 -14 -13 t-13 -1h-1q-12 2 -18 9t-6 18zM449 491h720v927z" />
<glyph unicode="&#xc7;" horiz-adv-x="1495" d="M96 761q0 213 105.5 391t286.5 282t394 104q137 0 259 -46.5t225 -131.5q17 -16 17 -29q0 -3 -1.5 -6t-1.5 -4l-2 -5l-1 -1q-10 -10 -23 -9q-12 0 -24 8q-210 162 -448 162q-197 0 -364 -95t-264 -259t-97 -361t97.5 -361t264 -259.5t363.5 -95.5q238 0 447 164 q12 10 24 10q11 0 18 -8l2 -2q6 -6 6 -17q0 -17 -14 -28q-95 -81 -209.5 -128t-241.5 -52v-142q65 -11 109 -62.5t44 -116.5q0 -49 -24 -90.5t-65 -66t-91 -24.5q-13 0 -21 8.5t-8 20.5t8.5 20t19.5 8q52 0 87.5 36.5t35.5 87.5q0 46 -28 76.5t-75 42.5q-3 1 -16 4t-21 9 t-8 13v175q-209 5 -384.5 110.5t-278 281.5t-102.5 386z" />
<glyph unicode="&#xc8;" horiz-adv-x="1293" d="M166 30v1463q0 29 29 29h990q34 0 34 -29v-1q0 -15 -9 -22.5t-25 -7.5h-961v-644h787q16 0 26 -7t10 -22v-1q0 -15 -10 -22t-26 -7h-787v-699h982q34 0 35 -29v-1q0 -15 -9.5 -22.5t-25.5 -7.5h-1011q-29 0 -29 30zM505 1965q0 12 8.5 20t19.5 9h2q7 0 13.5 -4t13.5 -18 l137 -244q5 -14 5 -19q0 -12 -9 -19t-20 -8h-2q-15 0 -28 21l-135 244q-5 8 -5 18z" />
<glyph unicode="&#xc9;" horiz-adv-x="1293" d="M166 30v1463q0 29 29 29h990q34 0 34 -29v-1q0 -15 -9 -22.5t-25 -7.5h-961v-644h787q16 0 26 -7t10 -22v-1q0 -15 -10 -22t-26 -7h-787v-699h982q34 0 35 -29v-1q0 -15 -9.5 -22.5t-25.5 -7.5h-1011q-29 0 -29 30zM704 1675q0 9 5 19l137 244q7 14 13 17.5t14 3.5h2 q11 -1 19.5 -9t8.5 -19q0 -10 -5 -18l-135 -244q-13 -21 -28 -21h-2q-11 1 -20 8t-9 19z" />
<glyph unicode="&#xca;" horiz-adv-x="1293" d="M166 30v1463q0 29 29 29h990q34 0 34 -29v-1q0 -15 -9 -22.5t-25 -7.5h-961v-644h787q16 0 26 -7t10 -22v-1q0 -15 -10 -22t-26 -7h-787v-699h982q34 0 35 -29v-1q0 -15 -9.5 -22.5t-25.5 -7.5h-1011q-29 0 -29 30zM457 1706q0 13 10 23l227 228q10 11 21 11t21 -11 l224 -224q12 -12 12 -24q0 -11 -9 -20.5t-20 -9.5q-13 0 -26 13l-202 202l-206 -204q-12 -12 -25 -12q-11 0 -18 7l-1 1q-9 9 -8 20z" />
<glyph unicode="&#xcb;" horiz-adv-x="1293" d="M166 30v1463q0 29 29 29h990q34 0 34 -29v-1q0 -15 -9 -22.5t-25 -7.5h-961v-644h787q16 0 26 -7t10 -22v-1q0 -15 -10 -22t-26 -7h-787v-699h982q34 0 35 -29v-1q0 -15 -9.5 -22.5t-25.5 -7.5h-1011q-29 0 -29 30zM492 1725v61q-1 26 26 26h65q26 0 26 -30v-57 q0 -30 -26 -30h-64q-16 0 -21.5 7t-5.5 23zM822 1725v61q0 26 27 26h65q26 0 26 -30v-57q0 -30 -26 -30h-64q-16 0 -22 7t-6 23z" />
<glyph unicode="&#xcc;" d="M12 1953q0 12 8.5 20t20.5 9h2q7 0 13 -4t13 -17l137 -245q5 -14 5 -19q0 -12 -9 -19t-20 -8h-2q-15 0 -27 22l-136 243q-5 8 -5 18zM164 35v1453q0 15 7.5 24.5t21.5 9.5h1q28 0 28 -34v-1453q0 -35 -28 -35h-1q-15 0 -22 9.5t-7 25.5z" />
<glyph unicode="&#xcd;" d="M164 35v1453q0 15 7.5 24.5t21.5 9.5h1q28 0 28 -34v-1453q0 -35 -28 -35h-1q-15 0 -22 9.5t-7 25.5zM245 1694q0 9 6 19l136 244q7 14 13 18t14 4h2q11 -1 20 -9t9 -20q0 -10 -6 -18l-135 -243q-13 -22 -28 -22h-2q-11 1 -20 8t-9 19z" />
<glyph unicode="&#xce;" d="M-68 1706q0 13 10 23l228 228q9 11 20 11t21 -11l224 -224q12 -12 12 -24q0 -11 -9 -20.5t-20 -9.5q-13 0 -25 13l-203 202l-206 -204q-12 -12 -25 -12q-11 0 -18 7l-1 1q-9 9 -8 20zM164 35v1453q0 15 7.5 24.5t21.5 9.5h1q28 0 28 -34v-1453q0 -35 -28 -35h-1 q-15 0 -22 9.5t-7 25.5z" />
<glyph unicode="&#xcf;" d="M-26 1715v61q0 27 27 27h65q26 0 26 -30v-58q0 -30 -26 -30h-64q-16 0 -22 7t-6 23zM164 35v1453q0 15 7.5 24.5t21.5 9.5h1q28 0 28 -34v-1453q0 -35 -28 -35h-1q-15 0 -22 9.5t-7 25.5zM305 1715v61q0 27 27 27h65q26 0 25 -30v-58q0 -30 -25 -30h-64q-16 0 -22 7 t-6 23z" />
<glyph unicode="&#xd0;" horiz-adv-x="1580" d="M20 745v1q0 28 33 28h109v720q0 25 20 29h505q206 -4 380 -107t275.5 -277t101.5 -381q0 -208 -104 -382t-281 -275t-385 -101h-482q-30 0 -30 20v696h-109q-33 0 -33 29zM221 59h453q192 0 354.5 93.5t258.5 255t96 350.5q0 192 -96 354.5t-258.5 257.5t-354.5 95h-453 v-691h234q13 0 21 -7.5t8 -21.5v-2q0 -11 -8.5 -19t-20.5 -8h-234v-657z" />
<glyph unicode="&#xd1;" horiz-adv-x="1592" d="M164 35v1458q0 11 7 19.5t21 9.5h5q15 0 32 -20l1124 -1395v1386q0 29 29 29h1q28 0 28 -29v-1458q0 -35 -28 -35h-6q-14 0 -31 19l-1124 1399v-1383q0 -35 -28 -35h-1q-15 0 -22 9.5t-7 25.5zM555 1707q0 11 11 22q41 47 76 68.5t80 21.5q27 0 51.5 -11.5t62.5 -33.5 q37 -22 62.5 -33.5t51.5 -11.5q25 0 44 14t43 39q15 16 25 24t20 8q12 0 18.5 -8.5t6.5 -16.5q0 -14 -12 -28q-35 -46 -72.5 -68.5t-82.5 -22.5q-28 0 -54 12.5t-60 34.5q-35 21 -57 32t-47 11q-35 0 -56.5 -14.5t-51.5 -48.5q-9 -10 -15.5 -14t-15.5 -4q-6 0 -18 8l-2 3 q-9 9 -8 17z" />
<glyph unicode="&#xd2;" horiz-adv-x="1767" d="M90 759q0 214 105.5 392.5t285 283t392.5 104.5t390 -104.5t280 -283t103 -392.5q0 -212 -103 -390t-280 -281.5t-390 -103.5t-393 103.5t-285 281.5t-105 390zM153 759q0 -196 96 -359.5t261 -258.5t363 -95q197 0 360 95t257 258t94 360q0 198 -94 362.5t-257 259.5 t-360 95t-362.5 -95.5t-261.5 -259.5t-96 -362zM685 1958q0 12 8.5 20t20.5 9h2q7 0 13 -3.5t13 -17.5l137 -244q5 -14 5 -20q0 -12 -9 -18.5t-20 -7.5h-2q-15 0 -27 21l-136 243q-5 8 -5 18z" />
<glyph unicode="&#xd3;" horiz-adv-x="1767" d="M90 759q0 214 105.5 392.5t285 283t392.5 104.5t390 -104.5t280 -283t103 -392.5q0 -212 -103 -390t-280 -281.5t-390 -103.5t-393 103.5t-285 281.5t-105 390zM153 759q0 -196 96 -359.5t261 -258.5t363 -95q197 0 360 95t257 258t94 360q0 198 -94 362.5t-257 259.5 t-360 95t-362.5 -95.5t-261.5 -259.5t-96 -362zM927 1710q0 9 5 19l137 244q7 14 13 18t13 4h3q11 -1 19.5 -9t8.5 -20q0 -10 -5 -18l-135 -243q-13 -22 -28 -22h-2q-11 1 -20 8t-9 19z" />
<glyph unicode="&#xd4;" horiz-adv-x="1767" d="M90 759q0 214 105.5 392.5t285 283t392.5 104.5t390 -104.5t280 -283t103 -392.5q0 -212 -103 -390t-280 -281.5t-390 -103.5t-393 103.5t-285 281.5t-105 390zM153 759q0 -196 96 -359.5t261 -258.5t363 -95q197 0 360 95t257 258t94 360q0 198 -94 362.5t-257 259.5 t-360 95t-362.5 -95.5t-261.5 -259.5t-96 -362zM613 1703q0 13 11 24l227 228q9 11 20 11t22 -11l224 -224q12 -12 12 -24q0 -11 -9.5 -20.5t-19.5 -9.5q-13 0 -26 13l-203 202l-205 -205q-12 -12 -25 -11q-11 0 -18 7l-1 1q-9 9 -9 19z" />
<glyph unicode="&#xd5;" horiz-adv-x="1767" d="M90 759q0 214 105.5 392.5t285 283t392.5 104.5t390 -104.5t280 -283t103 -392.5q0 -212 -103 -390t-280 -281.5t-390 -103.5t-393 103.5t-285 281.5t-105 390zM153 759q0 -196 96 -359.5t261 -258.5t363 -95q197 0 360 95t257 258t94 360q0 198 -94 362.5t-257 259.5 t-360 95t-362.5 -95.5t-261.5 -259.5t-96 -362zM607 1715q0 11 12 23q41 47 76 68t79 21q27 0 51.5 -11t63.5 -34q37 -22 62 -33t52 -11q25 0 44 13.5t42 39.5q15 16 25 24t20 8q12 0 18.5 -8.5t6.5 -17.5q0 -14 -11 -27q-35 -46 -73 -68.5t-83 -22.5q-28 0 -54 12t-60 35 q-35 21 -57 32t-47 11q-35 0 -56 -14.5t-51 -48.5q-10 -10 -16.5 -14.5t-14.5 -4.5q-6 0 -18 9l-3 2q-9 9 -8 17z" />
<glyph unicode="&#xd6;" horiz-adv-x="1767" d="M90 759q0 214 105.5 392.5t285 283t392.5 104.5t390 -104.5t280 -283t103 -392.5q0 -212 -103 -390t-280 -281.5t-390 -103.5t-393 103.5t-285 281.5t-105 390zM153 759q0 -196 96 -359.5t261 -258.5t363 -95q197 0 360 95t257 258t94 360q0 198 -94 362.5t-257 259.5 t-360 95t-362.5 -95.5t-261.5 -259.5t-96 -362zM631 1714v61q0 27 27 27h65q26 0 26 -30v-58q0 -30 -26 -30h-64q-16 0 -22 7t-6 23zM962 1714v61q0 27 27 27h65q26 0 25 -30v-58q0 -30 -25 -30h-64q-16 0 -22 7t-6 23z" />
<glyph unicode="&#xd7;" horiz-adv-x="921" d="M180 468q0 13 13 26l232 231l-231 231q-14 11 -14 25q0 10 10 20l1 1q9 9 19 8q11 0 26 -13l230 -230l234 234q12 10 23 9q12 0 20 -8v-1q6 -6 7 -20q0 -14 -9 -22l-233 -234l234 -234q10 -11 10 -24q0 -12 -9 -20h-1q-7 -7 -19 -8q-13 0 -22 10l-235 235l-231 -232 q-14 -14 -26 -14q-10 0 -19 10l-1 1q-9 8 -9 19z" />
<glyph unicode="&#xd8;" horiz-adv-x="1767" d="M90 759q0 214 105.5 392.5t285 283t392.5 104.5q138 0 262 -46l46 116q7 20 23 20h2q11 0 21 -8t10 -21q0 -6 -3 -13l-19 -48q-6 -14 -12.5 -30.5t-15.5 -35.5q135 -60 239.5 -167t162 -248.5t57.5 -298.5q0 -212 -103 -390t-280 -281.5t-390 -103.5q-141 0 -270 47 l-57 -146q-7 -19 -23 -19h-2q-12 0 -22 6t-10 20q0 5 3 14l59 145q-137 60 -241 166.5t-162 246.5t-58 295zM153 759q0 -196 96 -359.5t261 -258.5t363 -95q197 0 360 95t257 258t94 360q0 198 -94 362.5t-257 259.5t-360 95t-362.5 -95.5t-261.5 -259.5t-96 -362z" />
<glyph unicode="&#xd9;" horiz-adv-x="1538" d="M145 597v894q0 32 30 32h1q28 0 28 -32v-894q0 -154 75 -283t204 -204.5t284 -75.5t284 75.5t204 204.5t75 283v892q0 16 7.5 25t22.5 9h1q28 0 28 -34v-901q0 -167 -84 -307.5t-226 -223t-312 -82.5t-312 83.5t-226 226.5t-84 312zM601 1935q0 12 8.5 20t19.5 9h2 q7 0 13.5 -4t13.5 -18l137 -244q5 -14 5 -19q0 -12 -9 -19t-20 -8h-2q-15 0 -28 22l-135 243q-5 8 -5 18z" />
<glyph unicode="&#xda;" horiz-adv-x="1538" d="M145 597v894q0 32 30 32h1q28 0 28 -32v-894q0 -154 75 -283t204 -204.5t284 -75.5t284 75.5t204 204.5t75 283v892q0 16 7.5 25t22.5 9h1q28 0 28 -34v-901q0 -167 -84 -307.5t-226 -223t-312 -82.5t-312 83.5t-226 226.5t-84 312zM769 1702q0 9 5 20l137 244 q7 14 13 17.5t14 3.5h2q11 -1 20 -9t9 -20q0 -10 -6 -18l-135 -243q-13 -21 -28 -21h-2q-11 1 -20 8t-9 18z" />
<glyph unicode="&#xdb;" horiz-adv-x="1538" d="M145 597v894q0 32 30 32h1q28 0 28 -32v-894q0 -154 75 -283t204 -204.5t284 -75.5t284 75.5t204 204.5t75 283v892q0 16 7.5 25t22.5 9h1q28 0 28 -34v-901q0 -167 -84 -307.5t-226 -223t-312 -82.5t-312 83.5t-226 226.5t-84 312zM501 1717q0 13 11 24l227 228 q9 11 20 11t22 -11l224 -224q12 -12 12 -24q0 -11 -9.5 -20.5t-19.5 -9.5q-13 0 -26 12l-203 203l-205 -205q-12 -12 -25 -11q-11 0 -18 7l-1 1q-9 9 -9 19z" />
<glyph unicode="&#xdc;" horiz-adv-x="1538" d="M145 597v894q0 32 30 32h1q28 0 28 -32v-894q0 -154 75 -283t204 -204.5t284 -75.5t284 75.5t204 204.5t75 283v892q0 16 7.5 25t22.5 9h1q28 0 28 -34v-901q0 -167 -84 -307.5t-226 -223t-312 -82.5t-312 83.5t-226 226.5t-84 312zM549 1715v61q0 27 27 27h65 q26 0 26 -30v-58q0 -30 -26 -30h-64q-16 0 -22 7t-6 23zM880 1715v61q0 27 27 27h65q26 0 25 -30v-58q0 -30 -25 -30h-64q-16 0 -22 7t-6 23z" />
<glyph unicode="&#xdd;" horiz-adv-x="1201" d="M60 1494q0 12 8 20t17 8h4h2q11 0 22 -16l482 -753l483 752q7 12 13.5 14.5t11.5 2.5h3q10 0 18 -8.5t8 -20.5q0 -9 -6 -17l-501 -783v-657q0 -36 -29 -36h-1q-15 0 -22 10t-7 26v657l-501 784q-5 9 -5 17zM684 1691q0 9 5 19l137 244q7 14 13 17.5t13 3.5h2q11 -1 20 -9 t9 -19q0 -10 -5 -18l-136 -244q-12 -21 -27 -21h-2q-11 1 -20 8t-9 19z" />
<glyph unicode="&#xde;" horiz-adv-x="1275" d="M170 34v1458q-1 29 28 29h1q28 0 28 -29v-228h448q128 0 237 -64t173 -173t64 -237t-63.5 -236t-172.5 -171.5t-238 -63.5h-448v-285q0 -34 -28 -34h-1q-29 0 -28 34zM227 379h448q114 0 209 55t149.5 149t54.5 207q0 115 -54.5 210t-149.5 150t-209 55h-448v-826z" />
<glyph unicode="&#xdf;" horiz-adv-x="1112" d="M162 -350v1484q0 119 50.5 209t138.5 138t197 48q112 0 200.5 -50t137 -132.5t48.5 -178.5q0 -74 -26 -136.5t-69.5 -106.5t-97.5 -64q141 -39 219 -150.5t78 -278.5q0 -123 -64.5 -226.5t-175.5 -164t-245 -60.5q-75 0 -131 15q-23 4 -23 22q0 28 24 28l9 -1 q55 -13 112 -13q114 0 214.5 49.5t161 140.5t60.5 208q0 121 -47 211t-143 140t-240 50q-18 0 -27.5 9t-9.5 20t9 20t29 9q130 0 203 45t98 107t25 125q0 91 -43.5 160t-118.5 107.5t-169 38.5t-168.5 -44.5t-116 -121t-41.5 -172.5v-1484q0 -31 -31 -31q-16 0 -21.5 10 t-5.5 21z" />
<glyph unicode="&#xe0;" horiz-adv-x="1603" d="M121 643q0 180 94 336.5t249.5 249t328.5 92.5q131 0 252.5 -52t217 -145t148.5 -211v361q0 16 7 25.5t22 9.5h1q29 0 29 -35v-1239q0 -35 -29 -35h-1q-29 0 -29 35v339q-53 -117 -148 -208.5t-216.5 -143t-253.5 -51.5q-173 0 -328.5 91.5t-249.5 246t-94 334.5z M179 643q0 -164 86 -305t227.5 -224.5t298.5 -83.5q165 0 308.5 83t227.5 224t84 306q0 166 -89 308t-232.5 226.5t-298.5 84.5q-158 0 -299 -84t-227 -226t-86 -309zM611 1780q0 12 8.5 20t20.5 9h2q7 0 13 -3.5t14 -17.5l136 -245q5 -14 6 -19q0 -12 -9 -18.5t-20 -7.5h-2 q-15 0 -28 21l-135 243q-6 8 -6 18z" />
<glyph unicode="&#xe1;" horiz-adv-x="1603" d="M121 643q0 180 94 336.5t249.5 249t328.5 92.5q131 0 252.5 -52t217 -145t148.5 -211v361q0 16 7 25.5t22 9.5h1q29 0 29 -35v-1239q0 -35 -29 -35h-1q-29 0 -29 35v339q-53 -117 -148 -208.5t-216.5 -143t-253.5 -51.5q-173 0 -328.5 91.5t-249.5 246t-94 334.5z M179 643q0 -164 86 -305t227.5 -224.5t298.5 -83.5q165 0 308.5 83t227.5 224t84 306q0 166 -89 308t-232.5 226.5t-298.5 84.5q-158 0 -299 -84t-227 -226t-86 -309zM858 1551q0 9 5 19l136 244q7 14 13.5 18t13.5 4h2q11 -1 20 -9t9 -20q0 -10 -5 -18l-136 -243 q-12 -22 -27 -22h-3q-11 1 -19.5 8t-8.5 19z" />
<glyph unicode="&#xe2;" horiz-adv-x="1603" d="M121 643q0 180 94 336.5t249.5 249t328.5 92.5q131 0 252.5 -52t217 -145t148.5 -211v361q0 16 7 25.5t22 9.5h1q29 0 29 -35v-1239q0 -35 -29 -35h-1q-29 0 -29 35v339q-53 -117 -148 -208.5t-216.5 -143t-253.5 -51.5q-173 0 -328.5 91.5t-249.5 246t-94 334.5z M179 643q0 -164 86 -305t227.5 -224.5t298.5 -83.5q165 0 308.5 83t227.5 224t84 306q0 166 -89 308t-232.5 226.5t-298.5 84.5q-158 0 -299 -84t-227 -226t-86 -309zM535 1534q0 13 11 23l227 229q10 10 21 10t21 -10l224 -224q12 -12 12 -25q0 -11 -9 -20.5t-20 -9.5 q-13 0 -26 13l-202 203l-206 -205q-12 -12 -25 -12q-11 0 -18 8l-1 1q-9 9 -9 19z" />
<glyph unicode="&#xe3;" horiz-adv-x="1603" d="M121 643q0 180 94 336.5t249.5 249t328.5 92.5q131 0 252.5 -52t217 -145t148.5 -211v361q0 16 7 25.5t22 9.5h1q29 0 29 -35v-1239q0 -35 -29 -35h-1q-29 0 -29 35v339q-53 -117 -148 -208.5t-216.5 -143t-253.5 -51.5q-173 0 -328.5 91.5t-249.5 246t-94 334.5z M179 643q0 -164 86 -305t227.5 -224.5t298.5 -83.5q165 0 308.5 83t227.5 224t84 306q0 166 -89 308t-232.5 226.5t-298.5 84.5q-158 0 -299 -84t-227 -226t-86 -309zM510 1532q0 11 12 22q41 47 76 68.5t79 21.5q27 0 51.5 -11.5t62.5 -33.5q37 -22 62.5 -33.5t52.5 -11.5 q25 0 44 14t42 39q15 16 25 24t20 8q12 0 18.5 -8.5t6.5 -16.5q0 -14 -11 -28q-35 -46 -73 -68.5t-83 -22.5q-28 0 -54 12.5t-60 34.5q-35 21 -57 32t-47 11q-35 0 -56.5 -14.5t-50.5 -48.5q-10 -9 -16.5 -13.5t-14.5 -4.5q-6 0 -18 9l-3 2q-9 9 -8 17z" />
<glyph unicode="&#xe4;" horiz-adv-x="1603" d="M121 643q0 180 94 336.5t249.5 249t328.5 92.5q131 0 252.5 -52t217 -145t148.5 -211v361q0 16 7 25.5t22 9.5h1q29 0 29 -35v-1239q0 -35 -29 -35h-1q-29 0 -29 35v339q-53 -117 -148 -208.5t-216.5 -143t-253.5 -51.5q-173 0 -328.5 91.5t-249.5 246t-94 334.5z M179 643q0 -164 86 -305t227.5 -224.5t298.5 -83.5q165 0 308.5 83t227.5 224t84 306q0 166 -89 308t-232.5 226.5t-298.5 84.5q-158 0 -299 -84t-227 -226t-86 -309zM543 1540v61q0 27 27 27h65q26 0 25 -30v-58q0 -30 -25 -30h-64q-16 0 -22 7t-6 23zM874 1540v61 q-1 27 26 27h65q26 0 26 -30v-58q0 -30 -26 -30h-64q-16 0 -21.5 7t-5.5 23z" />
<glyph unicode="&#xe5;" horiz-adv-x="1603" d="M121 643q0 180 94 336.5t249.5 249t328.5 92.5q131 0 252.5 -52t217 -145t148.5 -211v361q0 16 7 25.5t22 9.5h1q29 0 29 -35v-1239q0 -35 -29 -35h-1q-29 0 -29 35v339q-53 -117 -148 -208.5t-216.5 -143t-253.5 -51.5q-173 0 -328.5 91.5t-249.5 246t-94 334.5z M179 643q0 -164 86 -305t227.5 -224.5t298.5 -83.5q165 0 308.5 83t227.5 224t84 306q0 166 -89 308t-232.5 226.5t-298.5 84.5q-158 0 -299 -84t-227 -226t-86 -309zM624 1628q0 45 22 82.5t59 59.5t82 22t83 -22t60.5 -59.5t22.5 -82.5t-22.5 -82.5t-60.5 -59t-83 -21.5 t-82 21.5t-59 59t-22 82.5zM676 1628q0 -49 31.5 -80t79.5 -31q50 0 82.5 31t32.5 80t-32.5 81.5t-82.5 32.5q-48 0 -79.5 -32.5t-31.5 -81.5z" />
<glyph unicode="&#xe6;" horiz-adv-x="2840" d="M121 643q0 180 94 336.5t249.5 249t328.5 92.5q131 0 252.5 -52t217 -145t148.5 -211v340q0 16 7 26t22 10h1q29 0 29 -36v-339q53 119 145.5 211t212.5 144t253 52q187 0 342.5 -95.5t245 -244t89.5 -297.5v-5q0 -29 -29 -28h-1258v-9q0 -164 82.5 -305.5t223.5 -225 t306 -83.5q101 0 179 23.5t130 55.5t113 80q12 10 25 9q10 0 16 -6l2 -2q6 -6 7 -16q0 -15 -13 -27q-94 -80 -206.5 -127t-252.5 -47q-134 0 -254.5 51t-213 141.5t-145.5 208.5v-337q0 -35 -29 -35h-1q-29 0 -29 35v339q-53 -117 -148 -208.5t-216.5 -143t-253.5 -51.5 q-173 0 -328.5 91.5t-249.5 246t-94 334.5zM179 643q0 -164 86 -305t227.5 -224.5t298.5 -83.5q165 0 308.5 83t227.5 224t84 306q0 166 -89 308t-232.5 226.5t-298.5 84.5q-158 0 -299 -84t-227 -226t-86 -309zM1474 708h1226q-9 126 -91 255t-220.5 214t-307.5 85 q-152 0 -285.5 -74.5t-219 -201.5t-102.5 -278z" />
<glyph unicode="&#xe7;" horiz-adv-x="1293" d="M82 647q0 188 95 343t250 243t327 88q113 0 237 -45.5t212 -125.5q13 -11 13 -25q0 -13 -7.5 -21.5t-21.5 -8.5q-11 0 -20 10q-84 78 -191.5 117.5t-209.5 39.5q-162 0 -306 -80t-231.5 -221t-87.5 -314q0 -166 84 -308t227 -225.5t310 -83.5q130 0 229 41.5t184 115.5 q12 10 25 9q12 0 19 -8.5t7 -18.5q0 -16 -14 -27q-197 -162 -428 -171v-151q65 -11 109 -62.5t44 -116.5q0 -49 -24 -91t-65.5 -66.5t-90.5 -24.5q-13 0 -21.5 8.5t-8.5 21.5q0 12 9 20t20 8q52 0 87.5 36t35.5 88q0 46 -28.5 76t-75.5 43q-3 1 -15.5 3.5t-20.5 8.5t-8 14 v186q-176 9 -325 101.5t-236.5 244.5t-87.5 329z" />
<glyph unicode="&#xe8;" horiz-adv-x="1548" d="M94 642q0 181 90.5 337.5t244 249t334.5 92.5q187 0 342.5 -95.5t245 -244t89.5 -297.5v-5q0 -29 -30 -28h-1257v-9q0 -164 82.5 -305.5t223 -225t306.5 -83.5q101 0 179 23.5t129.5 55.5t112.5 80q12 10 26 9q10 0 16 -6l2 -2q6 -6 6 -16q0 -15 -13 -27 q-94 -80 -206 -127t-252 -47q-181 0 -335.5 91t-245 245t-90.5 335zM156 708h1225q-9 126 -90.5 255t-220.5 214t-307 85q-153 0 -286.5 -74.5t-218.5 -201.5t-102 -278zM604 1755q0 12 8.5 19.5t20.5 8.5h2q7 0 13 -3.5t13 -17.5l137 -244q5 -14 5 -19q0 -12 -9 -19t-20 -8 h-2q-15 0 -27 21l-136 244q-5 8 -5 18z" />
<glyph unicode="&#xe9;" horiz-adv-x="1548" d="M94 642q0 181 90.5 337.5t244 249t334.5 92.5q187 0 342.5 -95.5t245 -244t89.5 -297.5v-5q0 -29 -30 -28h-1257v-9q0 -164 82.5 -305.5t223 -225t306.5 -83.5q101 0 179 23.5t129.5 55.5t112.5 80q12 10 26 9q10 0 16 -6l2 -2q6 -6 6 -16q0 -15 -13 -27 q-94 -80 -206 -127t-252 -47q-181 0 -335.5 91t-245 245t-90.5 335zM156 708h1225q-9 126 -90.5 255t-220.5 214t-307 85q-153 0 -286.5 -74.5t-218.5 -201.5t-102 -278zM848 1487q0 9 5 19l137 244q7 14 13 18t14 4h2q11 -1 19.5 -9t8.5 -20q0 -10 -5 -18l-135 -243 q-13 -22 -28 -22h-2q-11 1 -20 8t-9 19z" />
<glyph unicode="&#xea;" horiz-adv-x="1548" d="M94 642q0 181 90.5 337.5t244 249t334.5 92.5q187 0 342.5 -95.5t245 -244t89.5 -297.5v-5q0 -29 -30 -28h-1257v-9q0 -164 82.5 -305.5t223 -225t306.5 -83.5q101 0 179 23.5t129.5 55.5t112.5 80q12 10 26 9q10 0 16 -6l2 -2q6 -6 6 -16q0 -15 -13 -27 q-94 -80 -206 -127t-252 -47q-181 0 -335.5 91t-245 245t-90.5 335zM156 708h1225q-9 126 -90.5 255t-220.5 214t-307 85q-153 0 -286.5 -74.5t-218.5 -201.5t-102 -278zM512 1511q0 13 11 24l227 228q9 11 20 11t21 -11l224 -224q12 -12 12 -24q0 -11 -9 -20.5t-20 -9.5 q-13 0 -25 13l-203 202l-206 -205q-12 -12 -24 -11q-11 0 -18 7l-1 1q-9 9 -9 19z" />
<glyph unicode="&#xeb;" horiz-adv-x="1548" d="M94 642q0 181 90.5 337.5t244 249t334.5 92.5q187 0 342.5 -95.5t245 -244t89.5 -297.5v-5q0 -29 -30 -28h-1257v-9q0 -164 82.5 -305.5t223 -225t306.5 -83.5q101 0 179 23.5t129.5 55.5t112.5 80q12 10 26 9q10 0 16 -6l2 -2q6 -6 6 -16q0 -15 -13 -27 q-94 -80 -206 -127t-252 -47q-181 0 -335.5 91t-245 245t-90.5 335zM156 708h1225q-9 126 -90.5 255t-220.5 214t-307 85q-153 0 -286.5 -74.5t-218.5 -201.5t-102 -278zM558 1510v61q0 27 27 27h65q26 0 25 -30v-58q0 -30 -25 -29h-64q-16 0 -22 6.5t-6 22.5zM889 1510v61 q-1 27 26 27h65q26 0 26 -30v-58q0 -30 -26 -29h-64q-16 0 -21.5 6.5t-5.5 22.5z" />
<glyph unicode="&#xec;" d="M41 1765q0 12 8.5 20t19.5 9h2q7 0 13.5 -3.5t13.5 -17.5l137 -244q5 -14 5 -20q0 -12 -9 -18.5t-20 -7.5h-2q-15 0 -28 21l-135 243q-5 8 -5 18zM180 34v1241q0 33 30 33h1q29 0 29 -33v-1241q0 -34 -29 -34h-1q-15 0 -22.5 9t-7.5 25z" />
<glyph unicode="&#xed;" d="M180 34v1241q0 33 30 33h1q29 0 29 -33v-1241q0 -34 -29 -34h-1q-15 0 -22.5 9t-7.5 25zM209 1477q0 9 5 20l137 244q7 14 13 17.5t14 3.5h2q11 -1 20 -9t9 -20q0 -10 -6 -18l-135 -243q-13 -21 -28 -21h-2q-11 1 -20 8t-9 18z" />
<glyph unicode="&#xee;" d="M-61 1490q0 13 11 24l227 228q9 11 20 11t22 -11l224 -224q12 -12 11 -25q0 -11 -9 -20.5t-19 -9.5q-13 0 -26 13l-203 203l-206 -205q-12 -12 -24 -12q-11 0 -18 8l-1 1q-9 9 -9 19zM180 34v1241q0 33 30 33h1q29 0 29 -33v-1241q0 -34 -29 -34h-1q-15 0 -22.5 9 t-7.5 25z" />
<glyph unicode="&#xef;" d="M-15 1515v60q0 27 27 27h65q26 0 25 -30v-57q0 -30 -25 -30h-64q-16 0 -22 7t-6 23zM180 34v1241q0 33 30 33h1q29 0 29 -33v-1241q0 -34 -29 -34h-1q-15 0 -22.5 9t-7.5 25zM316 1515v60q-1 27 26 27h65q26 0 26 -30v-57q0 -30 -26 -30h-64q-16 0 -21.5 7t-5.5 23z" />
<glyph unicode="&#xf0;" horiz-adv-x="1545" d="M123 651q0 183 90.5 337.5t245 246t336.5 91.5q192 0 351 -99l-198 289l-130 -104q-11 -10 -23 -9q-10 0 -19.5 9t-9.5 21q0 14 15 25l133 107l-78 114q-6 10 -6 20q0 12 7.5 20t20.5 8h1q15 0 25 -15l76 -111l129 102q9 6 18 7q11 0 23 -12l1 -1q5 -9 5 -17 q0 -15 -11 -22l-131 -106l361 -525q57 -82 86.5 -177.5t29.5 -198.5q0 -181 -91 -336t-246.5 -245.5t-338.5 -90.5q-181 0 -336 90.5t-245.5 245t-90.5 336.5zM186 652q0 -165 82 -304.5t221 -222t304 -82.5q166 0 306 82.5t223 222t83 304.5t-83 306t-223 223.5t-306 82.5 q-164 0 -303.5 -82.5t-221.5 -223.5t-82 -306z" />
<glyph unicode="&#xf1;" horiz-adv-x="1393" d="M185 33v1241q0 34 27 34h1q28 0 28 -34l2 -245q48 92 127.5 159t172 102.5t179.5 35.5q164 0 288 -79t190 -206t66 -267v-741q0 -33 -28 -33h-1q-30 0 -30 33v741q0 121 -60 235t-171 186t-256 72q-102 0 -213.5 -57.5t-187.5 -166.5t-76 -255v-755q0 -33 -30 -33h-1 q-28 0 -27 33zM416 1525q0 11 12 23q41 47 76 68t79 21q27 0 51.5 -11t63.5 -33q37 -22 62 -33.5t52 -11.5q25 0 44 13.5t42 39.5q15 16 25 24t20 8q12 0 19 -8.5t7 -17.5q0 -14 -12 -27q-35 -46 -73 -68.5t-83 -22.5q-28 0 -54 12.5t-60 34.5q-35 21 -57 32t-47 11 q-35 0 -56 -14.5t-51 -48.5q-10 -10 -16.5 -14t-14.5 -4q-6 0 -18 8l-2 2q-9 9 -9 17z" />
<glyph unicode="&#xf2;" horiz-adv-x="1533" d="M102 650q0 182 89.5 336.5t242 245t333.5 90.5q183 0 340.5 -91t250.5 -245t93 -336q0 -181 -93 -337.5t-250 -249t-339 -92.5q-180 0 -333.5 92.5t-243.5 248.5t-90 338zM161 650q0 -166 81.5 -309t221.5 -227t305 -84q173 0 316 84t225 226.5t82 309.5q0 166 -85 307 t-228.5 223.5t-311.5 82.5q-165 0 -304.5 -82t-220.5 -223t-81 -308zM593 1769q0 12 8.5 19.5t20.5 8.5h2q7 0 13 -3.5t14 -17.5l136 -244q5 -14 6 -19q0 -12 -9.5 -19t-19.5 -8h-2q-15 0 -28 21l-136 243q-5 9 -5 19z" />
<glyph unicode="&#xf3;" horiz-adv-x="1533" d="M102 650q0 182 89.5 336.5t242 245t333.5 90.5q183 0 340.5 -91t250.5 -245t93 -336q0 -181 -93 -337.5t-250 -249t-339 -92.5q-180 0 -333.5 92.5t-243.5 248.5t-90 338zM161 650q0 -166 81.5 -309t221.5 -227t305 -84q173 0 316 84t225 226.5t82 309.5q0 166 -85 307 t-228.5 223.5t-311.5 82.5q-165 0 -304.5 -82t-220.5 -223t-81 -308zM794 1489q0 9 5 19l136 245q7 14 13.5 17.5t13.5 3.5h2q11 -1 20 -9t9 -20q0 -10 -5 -18l-136 -243q-12 -22 -27 -22h-3q-11 1 -19.5 8t-8.5 19z" />
<glyph unicode="&#xf4;" horiz-adv-x="1533" d="M102 650q0 182 89.5 336.5t242 245t333.5 90.5q183 0 340.5 -91t250.5 -245t93 -336q0 -181 -93 -337.5t-250 -249t-339 -92.5q-180 0 -333.5 92.5t-243.5 248.5t-90 338zM161 650q0 -166 81.5 -309t221.5 -227t305 -84q173 0 316 84t225 226.5t82 309.5q0 166 -85 307 t-228.5 223.5t-311.5 82.5q-165 0 -304.5 -82t-220.5 -223t-81 -308zM522 1489q0 13 10 24l227 228q10 10 21 10t21 -10l224 -224q12 -12 12 -25q0 -11 -9 -20.5t-20 -9.5q-13 0 -26 13l-202 203l-206 -205q-12 -12 -25 -12q-11 0 -18 8l-1 1q-9 9 -8 19z" />
<glyph unicode="&#xf5;" horiz-adv-x="1533" d="M102 650q0 182 89.5 336.5t242 245t333.5 90.5q183 0 340.5 -91t250.5 -245t93 -336q0 -181 -93 -337.5t-250 -249t-339 -92.5q-180 0 -333.5 92.5t-243.5 248.5t-90 338zM161 650q0 -166 81.5 -309t221.5 -227t305 -84q173 0 316 84t225 226.5t82 309.5q0 166 -85 307 t-228.5 223.5t-311.5 82.5q-165 0 -304.5 -82t-220.5 -223t-81 -308zM503 1518q0 11 12 22q41 47 76 68.5t80 21.5q27 0 51.5 -11.5t62.5 -33.5q37 -22 62.5 -33.5t51.5 -11.5q25 0 44 14t43 40q15 16 25 24t19 8q12 0 19 -8.5t7 -17.5q0 -14 -12 -28q-35 -46 -73 -68 t-82 -22q-28 0 -54 12t-61 35q-35 21 -57 31.5t-46 10.5q-35 0 -56.5 -14.5t-51.5 -48.5q-9 -9 -15.5 -13.5t-15.5 -4.5q-6 0 -18 9l-2 2q-9 9 -9 17z" />
<glyph unicode="&#xf6;" horiz-adv-x="1533" d="M102 650q0 182 89.5 336.5t242 245t333.5 90.5q183 0 340.5 -91t250.5 -245t93 -336q0 -181 -93 -337.5t-250 -249t-339 -92.5q-180 0 -333.5 92.5t-243.5 248.5t-90 338zM161 650q0 -166 81.5 -309t221.5 -227t305 -84q173 0 316 84t225 226.5t82 309.5q0 166 -85 307 t-228.5 223.5t-311.5 82.5q-165 0 -304.5 -82t-220.5 -223t-81 -308zM566 1527v61q0 27 27 27h65q26 0 26 -30v-58q0 -30 -26 -29h-64q-16 0 -22 6.5t-6 22.5zM897 1527v61q0 27 27 27h65q26 0 25 -30v-58q0 -30 -25 -29h-64q-16 0 -22 6.5t-6 22.5z" />
<glyph unicode="&#xf7;" horiz-adv-x="1048" d="M162 694v1q0 30 30 30h659q15 0 23.5 -8t8.5 -20v-3q0 -13 -8.5 -20.5t-23.5 -7.5h-659q-15 0 -22.5 8t-7.5 20zM474 14v65q0 2 1 5t1 6l4 5l4 2q1 1 8 1h65l3 -1l6 -3q6 -6 7 -17v-62q0 -5 -4.5 -10t-10.5 -5h-69q-15 0 -15 14zM474 1204v65q0 8 3.5 14t11.5 6h66l7 -2 l8 -5q0 -4 2 -6v-1l1 -4v-61q0 -19 -15 -20h-73h-1q-11 0 -10 14z" />
<glyph unicode="&#xf8;" horiz-adv-x="1533" d="M103 650q0 182 89.5 336.5t242 245t333.5 90.5q109 0 214 -35l49 121q7 20 24 20h2q10 0 20 -8t10 -21q0 -6 -2 -12l-47 -121q122 -51 215.5 -144t146 -215t52.5 -257q0 -181 -93 -337.5t-249.5 -249t-339.5 -92.5q-124 0 -238 45l-47 -117q-7 -19 -23 -20h-2 q-12 0 -22 6.5t-10 20.5q0 5 3 14l48 119q-111 55 -196.5 149t-132.5 212.5t-47 249.5zM162 650q0 -166 81.5 -309t221.5 -227t305 -84q173 0 316 84t225 226.5t82 309.5q0 166 -85 307t-228 223.5t-312 82.5q-165 0 -304.5 -82t-220.5 -223t-81 -308z" />
<glyph unicode="&#xf9;" horiz-adv-x="1386" d="M156 546v729q0 33 27 33h2q30 0 29 -33v-729q0 -151 69.5 -270.5t186.5 -186t252 -66.5q113 0 226.5 58t188 163t74.5 240v791q0 33 30 33h1q28 0 27 -33v-1241q0 -34 -27 -34h-1q-28 0 -28 34l-2 213q-49 -85 -129 -149.5t-174 -98.5t-183 -34q-166 0 -296 81.5 t-201.5 215.5t-71.5 284zM575 1703q0 12 8.5 20t20.5 9h2q7 0 13 -3.5t14 -17.5l136 -244q5 -14 5 -20q0 -12 -9 -18.5t-19 -7.5h-3q-15 0 -27 21l-136 243q-5 8 -5 18z" />
<glyph unicode="&#xfa;" horiz-adv-x="1386" d="M156 546v729q0 33 27 33h2q30 0 29 -33v-729q0 -151 69.5 -270.5t186.5 -186t252 -66.5q113 0 226.5 58t188 163t74.5 240v791q0 33 30 33h1q28 0 27 -33v-1241q0 -34 -27 -34h-1q-28 0 -28 34l-2 213q-49 -85 -129 -149.5t-174 -98.5t-183 -34q-166 0 -296 81.5 t-201.5 215.5t-71.5 284zM731 1440q0 9 5 19l137 244q7 14 13 18t13 4h2q11 -1 20 -9t9 -20q0 -10 -5 -18l-136 -243q-12 -22 -27 -22h-3q-11 1 -19.5 8t-8.5 19z" />
<glyph unicode="&#xfb;" horiz-adv-x="1386" d="M156 546v729q0 33 27 33h2q30 0 29 -33v-729q0 -151 69.5 -270.5t186.5 -186t252 -66.5q113 0 226.5 58t188 163t74.5 240v791q0 33 30 33h1q28 0 27 -33v-1241q0 -34 -27 -34h-1q-28 0 -28 34l-2 213q-49 -85 -129 -149.5t-174 -98.5t-183 -34q-166 0 -296 81.5 t-201.5 215.5t-71.5 284zM469 1467q0 13 11 23l227 228q9 11 20 11t22 -11l224 -224q12 -12 12 -24q0 -11 -9.5 -20.5t-19.5 -9.5q-13 0 -26 13l-203 202l-205 -204q-12 -12 -25 -12q-11 0 -18 7l-1 1q-9 9 -9 20z" />
<glyph unicode="&#xfc;" horiz-adv-x="1386" d="M156 546v729q0 33 27 33h2q30 0 29 -33v-729q0 -151 69.5 -270.5t186.5 -186t252 -66.5q113 0 226.5 58t188 163t74.5 240v791q0 33 30 33h1q28 0 27 -33v-1241q0 -34 -27 -34h-1q-28 0 -28 34l-2 213q-49 -85 -129 -149.5t-174 -98.5t-183 -34q-166 0 -296 81.5 t-201.5 215.5t-71.5 284zM511 1505v61q0 27 27 27h65q26 0 25 -30v-58q0 -30 -25 -30h-64q-16 0 -22 7t-6 23zM842 1505v61q-1 27 26 27h65q26 0 26 -30v-58q0 -30 -26 -30h-64q-16 0 -21.5 7t-5.5 23z" />
<glyph unicode="&#xfd;" horiz-adv-x="1204" d="M38 1279q0 13 10.5 21t20.5 8q17 0 26 -21l498 -1191l498 1188q10 23 26 24q13 0 22 -7.5t9 -20.5q0 -7 -3 -17l-698 -1669q-5 -13 -13 -18t-14 -5q-12 0 -20.5 7t-8.5 21q0 10 5 18l167 408l-521 1241q-3 6 -4 13zM636 1444q0 9 5 19l137 245q7 14 13 17.5t13 3.5h2 q11 -1 20 -9t9 -20q0 -10 -5 -18l-136 -243q-12 -21 -27 -21h-2q-11 1 -20 8t-9 18z" />
<glyph unicode="&#xfe;" horiz-adv-x="1286" d="M167 -382v1864q0 29 29 29t29 -29v-773q38 93 75 136h-2q74 84 174.5 131t214.5 47q142 0 262.5 -70.5t191 -191t70.5 -262.5q0 -141 -70.5 -261t-191 -190t-262.5 -70q-158 0 -276.5 79.5t-185.5 231.5v-671q0 -32 -29 -32t-29 32zM225 480q10 -116 75.5 -218.5 t169 -164t219.5 -61.5q125 0 232 63t170 169t63 231q0 126 -63 232.5t-169.5 169.5t-232.5 63q-124 0 -230.5 -63t-170 -169.5t-63.5 -232.5v-19z" />
<glyph unicode="&#xff;" horiz-adv-x="1204" d="M38 1279q0 13 10.5 21t20.5 8q17 0 26 -21l498 -1191l498 1188q10 23 26 24q13 0 22 -7.5t9 -20.5q0 -7 -3 -17l-698 -1669q-5 -13 -13 -18t-14 -5q-12 0 -20.5 7t-8.5 21q0 10 5 18l167 408l-521 1241q-3 6 -4 13zM364 1463v61q-1 27 26 27h65q26 0 26 -30v-58 q0 -30 -26 -29h-64q-16 0 -21.5 6.5t-5.5 22.5zM694 1463v61q0 27 27 27h65q26 0 26 -30v-58q0 -30 -26 -29h-64q-16 0 -22 6.5t-6 22.5z" />
<glyph unicode="&#x152;" horiz-adv-x="2679" d="M65 759q0 214 105 393.5t285 285t393 105.5q162 0 306.5 -62t253 -173.5t166.5 -255.5v440q0 28 27 29h975q32 0 32 -29v-1q0 -30 -32 -30h-943v-643h770q33 0 33 -27v-1q0 -15 -9 -23t-24 -8h-770v-699h963q32 0 32 -29v-1q0 -30 -32 -30h-992q-30 0 -30 30v437 q-59 -144 -167 -255t-252.5 -172.5t-306.5 -61.5q-212 0 -392 105t-285.5 284.5t-105.5 391.5zM124 759q0 -197 97 -363t263.5 -263t363.5 -97t363.5 97t263.5 263t97 363t-97 364t-263.5 264.5t-363.5 97.5t-363.5 -97.5t-263.5 -264t-97 -364.5z" />
<glyph unicode="&#x153;" horiz-adv-x="2682" d="M44 650q0 182 89 336.5t241.5 245t333.5 90.5q149 0 283 -61.5t231 -170t140 -245.5q43 137 137.5 245t224.5 169.5t276 61.5q187 0 342.5 -95.5t245 -244t89.5 -297.5v-5q0 -29 -30 -28h-1255v-1q0 -27 -1 -41q9 -158 93 -291t221 -211.5t297 -78.5q101 0 179 23.5 t130 55.5t112 80q12 10 26 9q10 0 16 -6l2 -2q6 -6 7 -16q0 -15 -13 -27q-94 -80 -206.5 -127t-252.5 -47q-147 0 -279 61.5t-226.5 170t-136.5 245.5q-44 -137 -140 -245.5t-228.5 -170t-281.5 -61.5q-180 0 -333.5 92.5t-243 248.5t-89.5 338zM102 650q0 -165 82 -308.5 t221.5 -227.5t304.5 -84q167 0 305 78t222.5 210.5t94.5 290.5q-1 11 -1 33q0 27 1 41q-9 160 -95 292.5t-226.5 210t-302.5 77.5q-165 0 -304 -82t-220.5 -223t-81.5 -308zM1393 708h1226q-9 126 -91 255t-220.5 214t-307.5 85q-153 0 -286 -74.5t-218.5 -201.5 t-102.5 -278z" />
<glyph unicode="&#x178;" horiz-adv-x="1201" d="M60 1494q0 12 8 20t17 8h4h2q11 0 22 -16l482 -753l483 752q7 12 13.5 14.5t11.5 2.5h3q10 0 18 -8.5t8 -20.5q0 -9 -6 -17l-501 -783v-657q0 -36 -29 -36h-1q-15 0 -22 10t-7 26v657l-501 784q-5 9 -5 17zM381 1706v60q-1 27 26 27h66q26 0 25 -30v-57q0 -30 -25 -30 h-64q-16 0 -22 7t-6 23zM711 1706v60q0 27 27 27h65q26 0 26 -30v-57q0 -30 -26 -30h-64q-16 0 -22 7t-6 23z" />
<glyph unicode="&#x2c6;" horiz-adv-x="765" d="M96 1350q0 13 11 24l227 228q9 11 20 11t21 -11l224 -224q12 -12 12 -24q0 -11 -9 -20.5t-20 -9.5q-13 0 -25 13l-203 202l-206 -205q-12 -12 -24 -11q-11 0 -18 7l-1 1q-9 9 -9 19z" />
<glyph unicode="&#x2dc;" horiz-adv-x="663" d="M22 1378q0 11 12 23q41 47 76 68t80 21q27 0 51.5 -11t62.5 -34q37 -22 62 -33t52 -11q25 0 44 13.5t43 39.5q15 16 25 24t19 8q12 0 19 -8.5t7 -17.5q0 -14 -12 -27q-35 -46 -73 -68.5t-83 -22.5q-28 0 -54 12t-60 35q-35 21 -57 31.5t-46 10.5q-35 0 -56.5 -14 t-51.5 -48q-9 -10 -15.5 -14.5t-15.5 -4.5q-6 0 -18 9l-2 2q-9 9 -9 17z" />
<glyph unicode="&#x2000;" horiz-adv-x="998" />
<glyph unicode="&#x2001;" horiz-adv-x="1997" />
<glyph unicode="&#x2002;" horiz-adv-x="998" />
<glyph unicode="&#x2003;" horiz-adv-x="1997" />
<glyph unicode="&#x2004;" horiz-adv-x="665" />
<glyph unicode="&#x2005;" horiz-adv-x="499" />
<glyph unicode="&#x2006;" horiz-adv-x="332" />
<glyph unicode="&#x2007;" horiz-adv-x="332" />
<glyph unicode="&#x2008;" horiz-adv-x="249" />
<glyph unicode="&#x2009;" horiz-adv-x="399" />
<glyph unicode="&#x200a;" horiz-adv-x="110" />
<glyph unicode="&#x2010;" horiz-adv-x="1048" d="M162 560v1q0 29 33 29h663q13 0 20.5 -7.5t7.5 -22.5v-1q0 -11 -8.5 -19.5t-19.5 -8.5h-663q-33 0 -33 29z" />
<glyph unicode="&#x2011;" horiz-adv-x="1048" d="M162 560v1q0 29 33 29h663q13 0 20.5 -7.5t7.5 -22.5v-1q0 -11 -8.5 -19.5t-19.5 -8.5h-663q-33 0 -33 29z" />
<glyph unicode="&#x2012;" horiz-adv-x="1048" d="M162 560v1q0 29 33 29h663q13 0 20.5 -7.5t7.5 -22.5v-1q0 -11 -8.5 -19.5t-19.5 -8.5h-663q-33 0 -33 29z" />
<glyph unicode="&#x2013;" horiz-adv-x="1378" d="M170 560v1q0 29 33 29h974q13 0 20.5 -7.5t7.5 -22.5v-1q0 -11 -8.5 -19.5t-19.5 -8.5h-974q-33 0 -33 29z" />
<glyph unicode="&#x2014;" horiz-adv-x="1707" d="M166 566v1q0 29 33 29h1303q13 0 21 -7.5t8 -22.5v-1q0 -11 -8.5 -19t-20.5 -8h-1303q-33 0 -33 28z" />
<glyph unicode="&#x2018;" horiz-adv-x="487" d="M174 1309v84q0 33 10 63t25 48t26 18q4 0 8 -4l18 -15q3 -3 4 -8q0 -7 -6.5 -16.5t-8.5 -12.5q-6 -10 -12.5 -20.5t-6.5 -19.5q0 -12 3 -15t12 -3h27q15 0 20 -6.5t5 -20.5v-72q0 -10 -6 -17t-19 -7h-78q-21 0 -21 24z" />
<glyph unicode="&#x2019;" horiz-adv-x="481" d="M154 1426v73q0 9 5.5 16t18.5 7h78q21 0 21 -23v-85q0 -33 -10 -62.5t-25 -48t-25 -18.5q-4 0 -9 5l-18 15q-3 3 -3 7q0 7 6 17t9 13q6 10 12 20.5t6 18.5q0 12 -3 15t-12 3h-27q-15 0 -19.5 6.5t-4.5 20.5z" />
<glyph unicode="&#x201a;" horiz-adv-x="438" d="M160 17v73q0 9 6 16t19 7h77q21 0 22 -23v-85q0 -33 -10.5 -62.5t-25 -48t-25.5 -18.5q-4 0 -9 5l-18 14q-3 3 -3 8q0 7 6.5 17t8.5 13q6 10 12 20.5t6 18.5q0 12 -2.5 15t-12.5 3h-26q-15 0 -20 6.5t-5 20.5z" />
<glyph unicode="&#x201c;" horiz-adv-x="803" d="M192 1309v84q0 33 10 63t25 48t26 18q4 0 8 -4l18 -15q3 -3 4 -8q0 -7 -6.5 -16.5t-8.5 -12.5q-6 -10 -12 -20.5t-6 -19.5q0 -12 2.5 -15t12.5 -3h26q15 0 20 -6.5t5 -20.5v-72q0 -10 -6 -17t-19 -7h-78q-21 0 -21 24zM425 1310v84q0 33 10 63t25 48t25 18q4 0 9 -4 l18 -15q3 -3 3 -7q0 -7 -6.5 -17t-8.5 -13q-6 -10 -12 -20.5t-6 -19.5q0 -12 2.5 -15t12.5 -3h27q15 0 19.5 -6.5t4.5 -20.5v-72q0 -10 -5.5 -17t-18.5 -7h-78q-21 0 -21 24z" />
<glyph unicode="&#x201d;" horiz-adv-x="696" d="M207 1424v73q0 9 6 16t18 7h78q21 0 22 -23v-85q0 -33 -10.5 -63t-25 -48t-25.5 -18q-4 0 -9 4l-18 15q-3 3 -3 8q0 7 6.5 17t8.5 13q6 10 12 20.5t6 18.5q0 12 -2.5 15t-12.5 3h-27q-15 0 -19.5 6.5t-4.5 20.5zM439 1425v73q0 9 6 16t19 7h78q21 0 21 -23v-85 q0 -33 -10 -62.5t-25 -48t-26 -18.5q-4 0 -8 5l-18 14q-3 3 -3 8q0 7 6 17t8 13q6 10 12.5 20.5t6.5 18.5q0 12 -3 15t-12 3h-27q-15 0 -20 6.5t-5 20.5z" />
<glyph unicode="&#x201e;" horiz-adv-x="620" d="M150 17v73q0 9 6 16t19 7h78q21 0 21 -23v-85q0 -33 -10 -62.5t-25 -48t-26 -18.5q-4 0 -8 5l-18 14q-3 3 -4 8q0 7 6.5 17t8.5 13q6 10 12.5 20.5t6.5 18.5q0 12 -3 15t-12 3h-27q-15 0 -20 6.5t-5 20.5zM353 17v73q0 9 6 16t19 7h77q21 0 22 -23v-85q0 -33 -10 -62.5 t-25 -48t-26 -18.5q-4 0 -9 5l-18 14q-3 3 -3 8q0 7 6.5 17t8.5 13q6 10 12 20.5t6 18.5q0 12 -2.5 15t-12.5 3h-26q-15 0 -20 6.5t-5 20.5z" />
<glyph unicode="&#x2022;" horiz-adv-x="485" d="M123 668q0 37 26 63t63 26t63.5 -26t26.5 -63t-26 -63.5t-64 -26.5q-37 0 -63 26t-26 64z" />
<glyph unicode="&#x2026;" horiz-adv-x="1076" d="M160 22v76q0 11 6 18t17 7h77q14 0 19 -7t5 -20v-71q0 -25 -19 -25h-86q-19 0 -19 22zM454 22v76q0 11 6 18t18 7h77q14 0 18.5 -7t4.5 -20v-71q0 -25 -19 -25h-85q-19 0 -20 22zM758 22v76q0 11 6 18t18 7h77q14 0 18.5 -7t4.5 -20v-71q0 -25 -19 -25h-85q-19 0 -20 22z " />
<glyph unicode="&#x202f;" horiz-adv-x="399" />
<glyph unicode="&#x2039;" horiz-adv-x="850" d="M92 573q0 6 7 13l535 528q12 12 26 11q10 0 15 -5l2 -2q10 -10 10 -21q0 -13 -11 -24l-506 -500l506 -500q11 -11 11 -24q0 -12 -10 -21l-2 -2q-5 -5 -15 -6q-15 0 -26 12l-535 528q-7 7 -7 13z" />
<glyph unicode="&#x203a;" horiz-adv-x="874" d="M148 49q0 13 11 24l507 500l-507 500q-11 11 -11 24q0 12 10 21l2 2q5 5 15 5q15 0 27 -11l534 -528q7 -7 7 -13t-7 -13l-534 -528q-12 -12 -27 -12q-10 0 -15 6l-2 2q-10 10 -10 21z" />
<glyph unicode="&#x205f;" horiz-adv-x="499" />
<glyph unicode="&#x20ac;" horiz-adv-x="1578" d="M51 621v1q0 29 33 29h89q-7 62 -8 110q0 50 7 99h-88q-33 0 -33 29v1q0 29 33 28h97q35 178 145.5 321t273.5 225t349 82q139 0 264.5 -44.5t226.5 -127.5q17 -16 17 -29q0 -3 -1.5 -6.5t-1.5 -4.5l-2 -4l-1 -1q-10 -10 -24 -10q-12 0 -23 9q-98 76 -213 117.5t-242 41.5 q-171 0 -319.5 -74t-251 -204t-137.5 -291h506q13 0 20.5 -7.5t7.5 -21.5v-2q0 -11 -8.5 -19t-19.5 -8h-517q-6 -49 -6 -99q0 -53 9 -110h514q13 0 20.5 -7.5t7.5 -22.5v-1q0 -11 -8.5 -19.5t-19.5 -8.5h-504q38 -159 140 -286t249.5 -199t316.5 -72q127 0 242 40.5 t210 115.5q12 10 23 10t18 -8l2 -2q6 -6 7 -17q0 -17 -14 -28q-98 -83 -222.5 -126t-265.5 -43q-185 0 -345.5 80t-271 220t-149.5 315h-99q-33 0 -33 29z" />
<glyph unicode="&#x2122;" horiz-adv-x="1362" d="M102 1492v6q0 23 29 23h416q31 0 31 -29v-3q0 -27 -31 -27h-177v-539q0 -30 -28 -30h-1q-30 0 -30 30v539h-180q-29 0 -29 30zM634 924l44 554q2 18 11.5 27.5t21.5 9.5h2q6 0 13 -4t10 -12l205 -471l224 470q10 20 35 20h1q11 0 19 -10t10 -29l43 -546v-4 q0 -15 -7 -22.5t-18 -7.5h-1q-28 0 -32 29l-37 451l-207 -437q-11 -23 -26 -24h-2q-19 0 -29 24l-185 427l-37 -447q-4 -27 -30 -27h-3q-12 0 -18.5 8t-6.5 21z" />
<glyph unicode="&#x25fc;" horiz-adv-x="1306" d="M0 0v1307h1307v-1307h-1307z" />
<glyph unicode="&#xfb02;" horiz-adv-x="1168" d="M39 1149v1q0 13 8 18.5t22 5.5h238v163q0 131 48.5 223t136 139t203.5 47q21 0 28 -11t7 -20v-2q0 -7 -7.5 -17t-31.5 -10q-106 0 -179 -44t-109.5 -123t-36.5 -182v-163h292q30 0 30 -24v-1q0 -28 -30 -28h-292v-1087q0 -34 -29 -34h-1q-29 0 -29 34v1087h-238 q-30 0 -30 28zM877 35v1617q0 16 7 26.5t22 10.5h1q15 0 21.5 -10.5t6.5 -26.5v-1617q0 -16 -6.5 -25.5t-21.5 -9.5h-1q-15 0 -22 9.5t-7 25.5z" />
<glyph unicode="&#xfb04;" horiz-adv-x="1971" d="M39 1149v1q0 13 8 18.5t22 5.5h238v163q0 131 48.5 223t136 139t203.5 47q20 0 30 -16q4 -5 5 -15v-2q0 -7 -7.5 -17t-31.5 -10q-106 0 -179 -44t-109.5 -123t-36.5 -182v-163h678v163q0 131 48.5 223t136 139t204.5 47q20 0 29 -16q4 -5 5 -15v-2q0 -7 -7.5 -17 t-31.5 -10q-106 0 -178.5 -44t-109.5 -123t-37 -182v-163h292q30 0 30 -24v-1q0 -28 -30 -28h-292v-1087q0 -34 -29 -34h-1q-29 0 -29 34v1087h-678v-1087q0 -34 -29 -34h-1q-29 0 -29 34v1087h-238q-30 0 -30 28zM1773 35v1617q0 16 7 26.5t22 10.5h1q15 0 21.5 -10.5 t6.5 -26.5v-1617q0 -16 -6.5 -25.5t-21.5 -9.5h-1q-15 0 -22 9.5t-7 25.5z" />
</font>
</defs>
</svg>
